<?xml version="1.0" standalone="no"?>
<!DOCTYPE svg PUBLIC "-//W3C//DTD SVG 20010904//EN"
 "http://www.w3.org/TR/2001/REC-SVG-20010904/DTD/svg10.dtd">
<svg version="1.0" xmlns="http://www.w3.org/2000/svg"
 width="512.000000pt" height="512.000000pt" viewBox="0 0 512.000000 512.000000"
 preserveAspectRatio="xMidYMid meet">
<metadata>
Created by potrace 1.16, written by Peter Selinger 2001-2019
</metadata>
<defs>
  <linearGradient id="gradientFill" x1="0%" y1="0%" x2="100%" y2="100%">
    <stop offset="0%" style="stop-color:#14b8a6;stop-opacity:1" />
    <stop offset="25%" style="stop-color:#06b6d4;stop-opacity:1" />
    <stop offset="75%" style="stop-color:#8b5cf6;stop-opacity:1" />
    <stop offset="100%" style="stop-color:#a855f7;stop-opacity:1" />
  </linearGradient>
</defs>
<g transform="translate(0.000000,512.000000) scale(0.100000,-0.100000)"
fill="url(#gradientFill)" stroke="none">
<path d="M36 5098 c3 -13 14 -39 24 -58 l18 -35 15 36 c33 80 33 79 -18 79
-43 0 -46 -1 -39 -22z"/>
<path d="M181 5058 c-46 -102 -46 -98 7 -163 34 -42 54 -59 68 -57 10 2 58 21
106 41 69 29 92 45 112 73 l25 37 -113 65 c-75 44 -124 66 -145 66 -30 0 -34
-5 -60 -62z"/>
<path d="M420 5115 c0 -6 96 -55 109 -55 5 0 19 14 31 30 l21 30 -80 0 c-45 0
-81 -2 -81 -5z"/>
<path d="M730 5091 c19 -16 36 -28 38 -26 1 1 -2 14 -7 29 -8 19 -17 26 -38
26 l-27 0 34 -29z"/>
<path d="M809 5103 c25 -46 97 -147 107 -150 7 -2 15 13 19 34 6 33 8 36 19
21 11 -15 14 -13 24 16 17 45 18 43 -38 71 -61 31 -147 36 -131 8z"/>
<path d="M1120 5102 c0 -10 11 -25 25 -32 23 -12 28 -11 53 11 15 13 31 27 37
31 5 5 -19 8 -53 8 -53 0 -62 -3 -62 -18z"/>
<path d="M1540 5060 c0 -65 12 -80 67 -80 15 0 63 -9 106 -19 42 -10 77 -16
77 -14 0 3 -18 43 -39 89 l-40 84 -85 0 -86 0 0 -60z"/>
<path d="M1770 5114 c0 -23 92 -194 108 -203 18 -10 28 -5 74 36 29 25 54 50
56 54 2 4 -13 33 -34 63 l-37 56 -83 0 c-46 0 -84 -3 -84 -6z"/>
<path d="M2030 5110 c0 -13 29 -70 35 -70 8 0 115 70 115 75 0 3 -34 5 -75 5
-46 0 -75 -4 -75 -10z"/>
<path d="M2265 5087 l-70 -34 -21 -81 -22 -81 28 -32 27 -33 69 70 c38 39 89
86 114 106 l45 36 -40 41 c-21 23 -44 41 -50 41 -6 0 -42 -15 -80 -33z"/>
<path d="M2445 5100 c19 -21 35 -18 35 6 0 9 -10 14 -27 14 -25 0 -26 -1 -8
-20z"/>
<path d="M2500 5094 c-6 -14 -10 -29 -10 -33 0 -11 100 -104 106 -99 2 3 1 39
-2 81 l-7 77 -39 0 c-32 0 -40 -4 -48 -26z"/>
<path d="M2650 5061 c0 -33 3 -62 8 -64 4 -3 30 4 58 14 52 20 64 35 64 87 0
21 -4 22 -65 22 l-65 0 0 -59z"/>
<path d="M2805 5089 c-4 -17 -5 -33 -2 -35 2 -3 21 5 40 16 42 25 40 50 -3 50
-24 0 -30 -5 -35 -31z"/>
<path d="M2968 5093 c-21 -14 -38 -29 -38 -33 0 -17 103 -151 132 -173 37 -27
68 -40 68 -28 0 4 -12 41 -26 82 -14 41 -28 98 -31 127 -6 51 -7 52 -37 51
-17 0 -48 -12 -68 -26z"/>
<path d="M3156 5098 c-12 -47 -5 -109 20 -177 49 -132 49 -132 175 157 l18 42
-103 0 c-99 0 -104 -1 -110 -22z"/>
<path d="M3438 5103 c-15 -17 -108 -202 -108 -216 0 -3 14 1 30 10 17 8 36 12
43 10 6 -3 -10 -15 -36 -27 -49 -22 -77 -62 -77 -110 0 -30 13 -25 53 20 35
38 83 120 71 120 -3 0 8 16 25 35 32 37 38 77 22 149 -6 27 -6 28 -23 9z"/>
<path d="M3490 5090 c0 -37 13 -39 28 -5 16 34 15 35 -8 35 -16 0 -20 -7 -20
-30z"/>
<path d="M3635 5104 c-11 -8 -25 -12 -31 -10 -14 5 -51 -85 -61 -147 l-6 -41
48 41 c67 57 82 41 17 -17 -62 -56 -67 -70 -12 -35 22 14 50 25 62 25 13 0 38
9 56 20 l32 20 56 -28 56 -27 31 40 c18 22 53 63 79 91 46 49 47 52 30 67 -35
32 -86 22 -164 -33 -66 -47 -108 -62 -108 -41 0 5 19 24 43 42 23 18 46 36 52
41 18 16 -159 8 -180 -8z"/>
<path d="M4080 5110 c0 -5 7 -7 15 -4 8 4 15 8 15 10 0 2 -7 4 -15 4 -8 0 -15
-4 -15 -10z"/>
<path d="M4245 5075 c62 -55 77 -61 110 -39 22 15 55 61 55 79 0 3 -48 5 -107
5 l-108 -1 50 -44z"/>
<path d="M4459 5103 c-13 -15 -12 -15 11 -3 34 17 36 20 18 20 -9 0 -22 -7
-29 -17z"/>
<path d="M4495 5052 l-100 -67 3 -70 c4 -82 15 -97 98 -121 71 -20 89 -13 33
14 -24 11 -36 21 -26 22 24 0 54 -16 95 -51 57 -50 66 -43 102 86 l32 116 -42
69 c-55 90 -64 90 -195 2z"/>
<path d="M4811 5076 c-16 -64 -13 -67 14 -16 28 53 30 60 11 60 -8 0 -18 -19
-25 -44z"/>
<path d="M5037 5090 c28 -16 54 -34 58 -40 13 -22 25 -8 25 30 l0 40 -67 0
-68 0 52 -30z"/>
<path d="M1 5027 l-1 -88 25 18 c13 10 24 20 25 23 0 3 -11 34 -25 70 l-24 65
0 -88z"/>
<path d="M4888 5067 c-63 -102 -62 -99 -16 -156 23 -28 44 -51 48 -51 3 0 41
36 84 79 l79 79 -39 24 c-49 31 -76 45 -106 57 -21 8 -27 4 -50 -32z"/>
<path d="M616 5056 l-36 -44 80 -45 80 -46 0 27 c0 15 5 34 10 42 7 11 -2 27
-37 63 -26 26 -50 47 -54 47 -4 0 -23 -20 -43 -44z"/>
<path d="M1373 5062 c-29 -14 -53 -29 -53 -32 1 -21 25 -32 90 -37 l73 -6 -7
26 c-12 51 -26 77 -38 76 -7 0 -37 -12 -65 -27z"/>
<path d="M4122 5078 c-7 -7 -12 -16 -12 -21 0 -11 61 -89 66 -84 6 5 -28 117
-35 117 -4 0 -12 -5 -19 -12z"/>
<path d="M4190 5063 c0 -20 31 -113 38 -113 4 0 19 8 34 18 l28 18 -33 30
c-47 44 -67 58 -67 47z"/>
<path d="M1087 5033 c-4 -3 -7 -12 -7 -20 0 -11 4 -11 19 -1 11 7 17 16 15 20
-6 10 -18 10 -27 1z"/>
<path d="M2835 5012 l-50 -27 -31 -110 c-17 -60 -34 -130 -38 -154 l-7 -44 23
17 c52 38 199 103 259 116 35 7 66 14 67 16 2 1 -18 29 -45 61 -26 32 -62 79
-78 106 -17 26 -34 47 -40 47 -5 0 -32 -13 -60 -28z"/>
<path d="M4000 4973 c-56 -58 -105 -122 -99 -127 2 -1 15 -7 29 -14 14 -6 48
-27 77 -46 l52 -35 25 44 c14 24 41 56 60 72 l34 28 -61 68 -62 69 -55 -59z"/>
<path d="M1275 5010 c-3 -5 -1 -10 4 -10 6 0 11 5 11 10 0 6 -2 10 -4 10 -3 0
-8 -4 -11 -10z"/>
<path d="M2128 5004 c-33 -18 -33 -15 -8 -56 13 -22 21 -27 24 -17 5 16 16 89
13 89 -1 -1 -14 -8 -29 -16z"/>
<path d="M2395 4969 c-65 -52 -145 -138 -144 -154 0 -5 36 -27 81 -48 l81 -38
30 28 c66 63 67 68 43 165 -11 47 -23 88 -26 91 -3 3 -32 -17 -65 -44z"/>
<path d="M2513 4919 l21 -72 23 29 c13 16 22 31 22 34 0 3 -20 22 -44 43 l-43
38 21 -72z"/>
<path d="M787 4924 c-9 -26 -15 -49 -13 -51 5 -5 76 29 76 36 0 3 -10 19 -23
34 l-22 28 -18 -47z"/>
<path d="M2693 4943 c-24 -13 -43 -31 -43 -39 0 -24 31 -156 36 -151 5 4 64
198 64 210 0 11 -11 7 -57 -20z"/>
<path d="M506 4911 c-20 -27 -45 -75 -56 -107 -21 -60 -27 -149 -10 -159 11
-7 282 174 287 191 4 11 -40 42 -138 98 l-47 27 -36 -50z"/>
<path d="M5045 4889 c-64 -65 -67 -71 -40 -65 116 27 118 28 113 95 l-3 42
-70 -72z"/>
<path d="M2001 4916 l-33 -34 34 -10 c51 -16 98 -24 98 -17 0 12 -52 95 -59
95 -4 0 -22 -15 -40 -34z"/>
<path d="M23 4928 c-28 -14 -30 -49 -4 -72 18 -17 19 -16 26 16 3 18 9 41 11
51 6 19 -1 20 -33 5z"/>
<path d="M1260 4937 c0 -2 14 -16 30 -32 l30 -29 0 32 c0 29 -3 32 -30 32 -16
0 -30 -1 -30 -3z"/>
<path d="M4292 4914 l-44 -26 34 -35 c32 -33 33 -34 36 -11 2 13 7 40 12 61 4
20 7 37 6 37 0 0 -21 -12 -44 -26z"/>
<path d="M1115 4904 c-61 -31 -75 -48 -75 -90 0 -25 15 -49 75 -118 42 -47 80
-86 85 -86 4 0 42 14 83 30 42 17 80 30 86 30 42 0 -13 114 -95 198 -71 71
-84 74 -159 36z"/>
<path d="M1350 4903 c0 -14 21 -68 47 -120 42 -85 49 -93 75 -93 l28 0 0 89
c0 49 -3 103 -6 120 l-6 31 -69 0 c-68 0 -69 0 -69 -27z"/>
<path d="M115 4876 c-9 -61 -6 -65 37 -46 l37 16 -26 37 c-14 20 -30 37 -34
37 -4 0 -11 -20 -14 -44z"/>
<path d="M1573 4887 c-9 -18 -18 -65 -21 -108 l-4 -75 68 -11 c38 -6 78 -7 89
-3 25 9 159 157 148 163 -12 6 -194 55 -230 61 -29 5 -35 2 -50 -27z"/>
<path d="M3636 4877 l-88 -41 6 -44 c12 -92 116 -359 134 -348 5 3 12 31 15
63 10 92 34 171 84 275 26 54 45 99 42 101 -16 11 -82 37 -92 36 -7 0 -52 -19
-101 -42z"/>
<path d="M4360 4888 c0 -21 5 -38 10 -38 13 0 13 40 0 60 -7 11 -10 5 -10 -22z"/>
<path d="M3454 4879 c-11 -23 -12 -30 -3 -27 11 4 33 58 23 58 -2 0 -11 -14
-20 -31z"/>
<path d="M368 4856 c-37 -19 -77 -36 -89 -39 -21 -6 -21 -7 9 -45 18 -22 47
-51 65 -65 l33 -25 13 61 c7 34 21 81 31 105 10 23 16 42 12 41 -4 0 -37 -15
-74 -33z"/>
<path d="M4765 4834 c-9 -31 -15 -59 -13 -63 4 -9 108 18 108 28 0 12 -61 91
-70 91 -5 0 -16 -25 -25 -56z"/>
<path d="M2592 4868 c-6 -6 -12 -19 -12 -27 0 -16 80 -144 87 -138 2 2 -10 37
-26 78 -16 41 -30 80 -32 87 -3 10 -7 10 -17 0z"/>
<path d="M4205 4840 c3 -5 1 -10 -6 -10 -7 0 -5 -8 6 -20 10 -11 20 -18 22
-16 7 7 -9 56 -19 56 -5 0 -6 -4 -3 -10z"/>
<path d="M1968 4790 c40 -36 150 -105 157 -98 9 10 23 84 17 90 -7 7 -186 48
-207 48 -5 -1 9 -18 33 -40z"/>
<path d="M3852 4773 c-47 -90 -80 -198 -92 -311 -9 -79 -8 -107 1 -118 6 -8
15 -14 19 -14 4 0 28 36 55 80 47 81 167 243 198 269 23 18 21 28 -9 56 -26
24 -128 95 -137 95 -2 0 -18 -26 -35 -57z"/>
<path d="M4274 4795 c7 -22 20 -41 29 -43 25 -5 20 14 -13 50 l-30 33 14 -40z"/>
<path d="M164 4806 c-18 -8 -34 -18 -38 -24 -3 -5 39 -39 94 -76 85 -56 104
-65 120 -56 19 10 15 16 -50 82 -38 39 -70 75 -70 80 0 12 -20 9 -56 -6z"/>
<path d="M2496 4770 c-25 -27 -46 -53 -46 -57 0 -4 31 -25 69 -45 61 -33 69
-35 84 -21 14 14 12 21 -14 77 -16 33 -29 66 -29 73 0 28 -21 19 -64 -27z"/>
<path d="M4355 4791 c13 -26 35 -50 35 -38 0 21 -25 67 -36 67 -12 0 -12 -4 1
-29z"/>
<path d="M1854 4763 l-38 -46 55 7 c30 4 64 10 77 13 22 5 22 6 -10 39 -18 19
-36 34 -39 34 -4 0 -24 -21 -45 -47z"/>
<path d="M4120 4775 c-29 -46 -22 -53 15 -15 20 21 26 33 18 41 -7 7 -17 0
-33 -26z"/>
<path d="M875 4792 c-5 -4 -10 -33 -11 -65 0 -32 3 -54 7 -50 13 14 48 111 42
117 -8 8 -26 7 -38 -2z"/>
<path d="M3050 4793 c-88 -12 -236 -72 -299 -121 -23 -18 -23 -19 -6 -53 19
-38 154 -179 170 -179 5 1 60 31 120 69 109 67 110 68 122 117 17 73 16 80
-18 119 -38 43 -56 52 -89 48z"/>
<path d="M3140 4786 c0 -3 9 -10 20 -16 11 -6 20 -8 20 -6 0 3 -9 10 -20 16
-11 6 -20 8 -20 6z"/>
<path d="M3472 4778 c-21 -21 -14 -137 10 -188 12 -25 21 -48 20 -52 -1 -4 4
-5 12 -2 7 3 28 -12 46 -33 29 -33 32 -34 27 -13 -6 26 -97 293 -101 297 -1 2
-8 -3 -14 -9z"/>
<path d="M4415 4759 c12 -56 22 -67 68 -74 59 -9 167 21 139 39 -6 3 -14 1
-18 -5 -5 -8 -12 -6 -23 8 -9 11 -43 27 -76 36 -33 8 -68 19 -79 23 -16 6 -17
3 -11 -27z"/>
<path d="M4131 4734 l-40 -46 33 -52 c19 -28 38 -50 44 -49 5 1 13 -4 16 -13
4 -10 1 -13 -7 -9 -6 4 -3 -1 8 -10 11 -9 20 -20 20 -25 0 -10 10 -14 23 -8 4
2 5 51 4 110 -4 105 -5 108 -32 128 l-28 20 -41 -46z"/>
<path d="M5060 4768 c-18 -8 -21 -12 -10 -16 8 -2 27 -11 43 -19 27 -13 27
-13 27 17 0 33 -15 37 -60 18z"/>
<path d="M801 4727 c-25 -51 -27 -87 -6 -87 17 0 32 32 41 91 9 52 -9 51 -35
-4z"/>
<path d="M665 4727 c-85 -46 -150 -91 -150 -105 0 -14 167 -152 177 -145 5 2
8 20 8 40 0 20 7 80 16 135 9 55 14 101 12 103 -2 2 -30 -11 -63 -28z"/>
<path d="M2210 4754 c0 -22 65 -144 77 -144 7 0 29 15 49 33 l35 32 -81 43
c-44 24 -80 40 -80 36z"/>
<path d="M0 4730 c0 -5 7 -10 16 -10 8 0 12 5 9 10 -3 6 -10 10 -16 10 -5 0
-9 -4 -9 -10z"/>
<path d="M2170 4724 c0 -11 16 -38 35 -60 l36 -39 -20 40 c-11 22 -26 49 -35
60 -15 20 -15 20 -16 -1z"/>
<path d="M3378 4714 c-21 -13 -38 -28 -38 -32 0 -4 29 -36 64 -71 l65 -64 -15
41 c-7 23 -17 66 -20 97 -4 30 -10 55 -13 54 -3 0 -23 -11 -43 -25z"/>
<path d="M4950 4727 c0 -2 20 -39 45 -82 24 -43 46 -83 48 -88 2 -6 18 -5 40
2 36 12 37 13 37 65 l0 52 -55 27 c-46 22 -115 37 -115 24z"/>
<path d="M4350 4623 c103 -198 167 -251 120 -101 -35 111 -58 147 -112 174
-26 13 -50 24 -53 24 -4 0 17 -44 45 -97z"/>
<path d="M4815 4634 c-38 -47 -71 -91 -73 -98 -4 -18 71 -66 89 -56 8 4 51 18
97 31 45 12 82 26 82 31 0 30 -94 178 -113 178 -7 0 -43 -39 -82 -86z"/>
<path d="M972 4698 c-16 -16 -15 -35 1 -40 32 -12 50 19 24 41 -10 8 -17 7
-25 -1z"/>
<path d="M4263 4628 c2 -48 6 -90 9 -94 6 -5 68 22 68 31 0 2 -18 37 -41 77
l-40 73 4 -87z"/>
<path d="M18 4693 c-10 -2 -18 -9 -18 -14 0 -13 13 -11 36 6 19 14 14 17 -18
8z"/>
<path d="M83 4513 c4 -104 10 -204 15 -223 l8 -35 34 65 c20 37 68 99 111 143
l76 79 -71 52 c-96 70 -153 106 -167 106 -9 0 -10 -47 -6 -187z"/>
<path d="M1853 4686 c-35 -7 -71 -20 -82 -30 -27 -25 -62 -111 -64 -159 l-2
-42 85 1 c47 0 135 10 195 21 l110 20 12 68 c12 62 11 70 -5 88 -43 48 -120
58 -249 33z"/>
<path d="M4724 4682 c-6 -4 -14 -23 -18 -42 l-6 -34 40 39 c22 21 40 40 40 42
0 6 -45 2 -56 -5z"/>
<path d="M3231 4659 c-11 -31 -5 -37 16 -16 13 13 14 20 5 29 -9 9 -14 6 -21
-13z"/>
<path d="M4028 4632 c-71 -79 -228 -316 -216 -327 15 -14 368 168 368 190 0
10 -107 175 -114 175 -2 0 -19 -17 -38 -38z"/>
<path d="M2385 4627 c-15 -36 -9 -85 16 -124 20 -33 144 -91 219 -103 84 -13
110 -13 110 1 0 34 -278 259 -319 259 -7 0 -18 -15 -26 -33z m155 -70 c-20
-18 -70 -38 -70 -29 0 9 58 40 75 41 5 1 3 -5 -5 -12z"/>
<path d="M1455 4633 c3 -10 11 -39 17 -65 7 -31 17 -48 30 -51 20 -6 22 9 12
87 -6 43 -9 46 -36 46 -25 0 -29 -3 -23 -17z"/>
<path d="M1554 4589 c3 -34 6 -70 6 -79 0 -11 12 -22 31 -29 54 -19 59 -16 59
39 0 61 -19 102 -55 118 -45 21 -48 17 -41 -49z"/>
<path d="M4565 4623 c-33 -13 -64 -29 -69 -33 -7 -8 7 -87 21 -112 4 -8 66 27
84 48 13 16 41 124 31 123 -4 0 -34 -12 -67 -26z"/>
<path d="M7 4633 c-4 -3 -7 -61 -7 -128 l0 -121 30 -29 30 -29 -6 144 c-3 80
-7 151 -10 158 -4 13 -26 16 -37 5z"/>
<path d="M376 4621 c-18 -29 23 -42 45 -14 12 15 12 16 -5 10 -11 -5 -22 -3
-26 4 -6 8 -9 8 -14 0z"/>
<path d="M916 4593 c-10 -21 -25 -52 -32 -69 l-13 -32 45 17 c55 21 72 37 80
77 5 27 3 32 -18 37 -39 11 -44 8 -62 -30z"/>
<path d="M1300 4609 c-68 -24 -75 -31 -52 -52 12 -11 46 -19 105 -23 98 -8
100 -5 73 61 -18 42 -41 44 -126 14z"/>
<path d="M2145 4583 c-3 -21 -8 -48 -11 -60 -4 -22 -2 -23 61 -23 50 0 64 3
59 13 -19 31 -68 88 -85 97 -16 9 -19 5 -24 -27z"/>
<path d="M2632 4593 c12 -12 25 -23 30 -23 4 0 8 11 8 23 0 20 -5 24 -30 24
l-30 0 22 -24z"/>
<path d="M756 4575 c-13 -84 -14 -105 -5 -105 12 0 79 113 79 134 0 1 -16 2
-35 2 -31 -1 -35 -4 -39 -31z"/>
<path d="M1013 4570 l-10 -40 32 0 c18 0 46 5 64 11 27 10 30 13 19 27 -12 14
-68 42 -86 42 -4 0 -13 -18 -19 -40z"/>
<path d="M3245 4570 c-49 -39 -50 -39 -75 -147 -14 -60 -36 -134 -49 -166 -13
-31 -21 -63 -18 -71 3 -7 34 -23 69 -35 68 -23 243 -49 254 -38 22 22 30 190
13 300 -10 69 -13 74 -72 135 -34 34 -64 62 -67 61 -3 0 -27 -18 -55 -39z"/>
<path d="M455 4578 c-16 -22 -15 -24 52 -86 89 -82 91 -84 132 -63 l33 18 -88
70 c-114 89 -110 87 -129 61z"/>
<path d="M2315 4580 c-16 -18 -17 -23 -4 -46 13 -25 35 -41 44 -33 2 2 -2 26
-9 52 -12 47 -12 48 -31 27z"/>
<path d="M2710 4577 c1 -28 13 -49 74 -125 51 -65 59 -69 91 -49 19 11 14 18
-72 104 -73 72 -93 87 -93 70z"/>
<path d="M5083 4533 c-13 -2 -23 -6 -23 -8 0 -2 13 -44 30 -92 l30 -88 0 98
c0 53 -3 96 -7 96 -5 -1 -18 -4 -30 -6z"/>
<path d="M331 4481 c-29 -41 -77 -139 -89 -183 l-10 -37 96 34 c54 19 119 44
147 56 l50 22 -75 68 c-41 38 -80 69 -87 69 -6 0 -21 -13 -32 -29z"/>
<path d="M3032 4454 c-82 -49 -92 -58 -86 -77 9 -31 77 -147 85 -147 12 0 47
85 73 180 14 51 24 95 23 96 -2 2 -45 -22 -95 -52z"/>
<path d="M4937 4485 c-43 -12 -81 -26 -85 -29 -3 -4 7 -18 24 -31 17 -13 51
-50 75 -81 45 -58 111 -114 136 -114 8 0 13 11 13 28 0 51 -63 253 -79 251 -3
0 -41 -11 -84 -24z"/>
<path d="M1299 4482 c21 -39 37 -45 91 -32 35 8 50 17 50 28 0 14 -13 17 -75
20 -71 2 -75 1 -66 -16z"/>
<path d="M4340 4486 l-24 -14 49 -31 c69 -44 82 -40 45 14 -34 50 -35 50 -70
31z"/>
<path d="M4676 4492 c-3 -5 -10 -22 -16 -38 l-11 -29 28 25 c15 14 29 25 31
26 1 1 -4 7 -12 13 -8 7 -17 8 -20 3z"/>
<path d="M1138 4474 c-16 -8 -28 -19 -28 -24 0 -5 30 -18 67 -30 36 -11 74
-26 82 -33 19 -14 15 -8 -38 61 -36 46 -43 48 -83 26z"/>
<path d="M1490 4471 c0 -10 7 -18 15 -18 8 0 15 6 15 13 0 6 -7 14 -15 18 -10
3 -15 -1 -15 -13z"/>
<path d="M4561 4462 c-30 -25 -33 -31 -26 -61 6 -27 9 -31 20 -20 11 12 48
109 42 109 -2 0 -18 -13 -36 -28z"/>
<path d="M2163 4463 c-22 -3 -33 -10 -34 -21 0 -9 -4 -50 -8 -90 l-7 -74 46
-31 c25 -17 81 -57 124 -90 l79 -58 28 27 c22 21 26 31 18 45 -5 10 -19 49
-30 86 -27 87 -83 199 -104 207 -17 6 -55 6 -112 -1z"/>
<path d="M1940 4435 c-63 -13 -140 -24 -170 -25 l-55 -1 65 -18 c36 -10 98
-26 138 -36 41 -9 92 -25 115 -35 23 -11 45 -16 48 -12 4 4 9 40 11 80 4 85
17 81 -152 47z"/>
<path d="M2370 4457 c0 -14 82 -233 91 -242 6 -6 15 -4 24 6 14 14 11 25 -30
110 -24 53 -54 104 -65 114 -11 10 -20 16 -20 12z"/>
<path d="M3467 4413 c10 -66 10 -177 0 -242 l-8 -54 33 43 c18 24 44 50 58 59
23 15 23 13 -6 -24 -17 -22 -39 -52 -49 -67 -17 -28 -17 -28 7 -28 17 0 48 21
92 61 66 61 67 62 62 106 -3 33 -12 50 -33 66 -15 12 -58 46 -95 75 l-68 53 7
-48z m178 -163 c3 -5 0 -7 -8 -4 -8 3 -18 1 -22 -5 -3 -6 -12 -11 -18 -11 -7
0 -3 7 7 15 23 18 33 19 41 5z"/>
<path d="M888 4443 c-26 -4 -68 -44 -68 -65 0 -5 10 -3 22 3 12 7 56 25 98 40
l75 28 -50 -1 c-27 -1 -62 -3 -77 -5z"/>
<path d="M1570 4419 c0 -28 3 -31 23 -25 12 3 28 6 35 6 25 0 11 28 -19 39
-18 6 -34 11 -35 11 -2 0 -4 -14 -4 -31z"/>
<path d="M4270 4441 c0 -17 162 -251 173 -251 22 1 67 72 67 105 0 37 -44 85
-78 85 -32 0 -84 24 -106 49 -19 21 -56 29 -56 12z"/>
<path d="M4675 4397 c-58 -56 -76 -99 -32 -76 12 7 36 22 52 34 17 12 44 31
60 41 45 28 18 -3 -50 -57 -51 -40 -54 -45 -38 -58 17 -13 238 -121 248 -121
7 0 -33 99 -63 154 -29 52 -98 136 -113 136 -5 0 -34 -24 -64 -53z"/>
<path d="M1502 4431 c-8 -4 -12 -20 -10 -34 2 -19 7 -24 16 -18 8 4 12 20 10
34 -2 19 -7 24 -16 18z"/>
<path d="M4152 4405 c-40 -19 -105 -53 -144 -76 l-72 -42 68 -34 c85 -43 202
-73 286 -73 120 0 119 -4 28 128 -44 65 -83 120 -87 124 -4 5 -40 -8 -79 -27z"/>
<path d="M1408 4418 c-61 -16 -43 -60 20 -51 28 5 32 9 32 34 0 16 -3 29 -7
28 -5 -1 -25 -6 -45 -11z"/>
<path d="M221 4383 c-32 -39 -96 -153 -86 -153 3 0 19 7 35 15 21 11 32 27 41
58 6 23 20 59 30 79 24 48 19 48 -20 1z"/>
<path d="M980 4394 c-30 -14 -77 -39 -103 -56 -40 -26 -50 -29 -58 -17 -7 11
-9 10 -9 -4 0 -22 22 -67 62 -125 l30 -43 46 44 c55 51 143 109 224 147 l58
27 -73 27 c-89 32 -108 32 -177 0z"/>
<path d="M4494 4409 c-3 -6 -1 -16 5 -22 8 -8 11 -5 11 11 0 24 -5 28 -16 11z"/>
<path d="M2471 4358 c11 -28 29 -64 40 -80 l20 -28 44 31 c54 39 93 79 76 79
-7 0 -10 3 -8 8 3 4 -16 8 -42 9 -26 2 -67 9 -90 18 -24 8 -47 15 -52 15 -5 0
0 -23 12 -52z"/>
<path d="M4865 4365 c15 -25 43 -81 61 -123 18 -42 36 -76 39 -76 3 1 19 4 36
8 20 4 28 10 23 18 -5 7 -2 9 8 5 27 -10 29 5 3 25 -23 18 -26 18 -50 2 -32
-21 -41 -13 -21 18 15 23 14 26 -38 87 -70 84 -98 100 -61 36z"/>
<path d="M673 4377 l-23 -13 26 -27 c27 -29 44 -28 44 3 0 23 -10 50 -19 50
-3 -1 -16 -6 -28 -13z"/>
<path d="M1605 4361 c-33 -7 -38 -21 -50 -143 -9 -78 -25 -74 -25 6 0 71 -9
126 -20 126 -4 0 -11 -28 -14 -63 -6 -56 -4 -72 20 -130 15 -37 30 -67 33 -66
15 1 63 122 76 193 8 44 14 80 12 81 -1 1 -15 -1 -32 -4z"/>
<path d="M1665 4275 c-19 -105 -17 -283 5 -357 l10 -36 166 1 c156 2 165 3
169 22 4 17 43 233 60 331 5 30 3 32 -47 54 -60 26 -220 67 -294 76 l-52 6
-17 -97z"/>
<path d="M2889 4354 c-11 -13 -3 -25 55 -82 l67 -67 -40 70 c-23 38 -41 75
-41 82 0 18 -25 16 -41 -3z"/>
<path d="M1227 4336 c-138 -57 -308 -184 -294 -219 4 -10 12 -19 19 -21 88
-25 203 -66 291 -103 123 -53 124 -53 151 42 31 106 30 125 -9 190 -20 33 -50
77 -68 97 l-32 38 -58 -24z"/>
<path d="M500 4318 c-75 -28 -87 -42 -30 -34 65 10 112 26 107 39 -6 18 -19
17 -77 -5z"/>
<path d="M1431 4303 c12 -21 24 -40 26 -42 2 -2 3 14 3 37 0 38 -2 42 -26 42
l-26 0 23 -37z"/>
<path d="M2645 4256 l-97 -64 33 -36 c19 -20 84 -62 144 -95 107 -57 111 -58
140 -44 38 19 105 83 105 100 0 7 -11 19 -24 28 -13 9 -53 51 -90 95 -49 58
-73 80 -90 80 -13 0 -67 -29 -121 -64z"/>
<path d="M575 4289 c-54 -32 -151 -52 -190 -39 -55 18 -164 -16 -165 -53 0
-13 49 -27 150 -44 l96 -17 87 63 c47 34 88 65 91 69 2 4 -6 14 -18 23 -19 14
-24 14 -51 -2z"/>
<path d="M0 4258 c0 -34 3 -38 25 -38 31 0 31 7 0 45 l-25 30 0 -37z"/>
<path d="M4596 4258 c-3 -13 -6 -33 -6 -45 0 -22 3 -23 93 -23 l92 0 -42 19
c-23 11 -59 31 -80 45 -46 32 -49 32 -57 4z"/>
<path d="M2096 4193 c-4 -31 -18 -112 -31 -181 -14 -69 -24 -127 -22 -128 1
-1 18 -5 37 -9 34 -6 40 -2 145 95 61 55 111 104 112 108 2 7 -122 101 -193
145 l-41 26 -7 -56z"/>
<path d="M3740 4228 c0 -7 5 -20 10 -28 8 -12 10 -11 10 7 0 12 -4 25 -10 28
-5 3 -10 0 -10 -7z"/>
<path d="M603 4189 c-29 -22 -53 -44 -53 -49 0 -6 13 -10 30 -10 26 0 33 7 55
50 14 28 24 50 23 50 -2 0 -27 -18 -55 -41z"/>
<path d="M3850 4226 c0 -2 7 -7 16 -10 8 -3 12 -2 9 4 -6 10 -25 14 -25 6z"/>
<path d="M171 4211 c-8 -6 -9 -11 -3 -15 6 -3 14 -1 17 5 9 14 2 20 -14 10z"/>
<path d="M3960 4188 c14 -11 62 -39 108 -61 l84 -40 23 29 23 29 -51 7 c-29 4
-84 18 -123 32 -86 31 -97 32 -64 4z"/>
<path d="M726 4160 c-21 -52 -21 -50 15 -50 24 0 30 4 25 15 -3 8 -9 22 -13
32 -4 11 -3 14 5 9 17 -10 15 9 -2 23 -11 9 -17 4 -30 -29z"/>
<path d="M3785 4191 c-12 -20 -18 -138 -7 -145 16 -10 158 -20 178 -12 16 6
15 8 -2 27 -39 44 -163 139 -169 130z"/>
<path d="M2520 4154 c8 -8 23 -20 34 -26 19 -10 18 -8 -3 16 -26 27 -53 37
-31 10z"/>
<path d="M3631 4126 l-44 -45 26 -5 c82 -18 77 -18 76 11 -1 16 -4 41 -8 56
l-6 28 -44 -45z"/>
<path d="M4490 4140 c-12 -22 -5 -60 11 -60 5 0 9 18 9 40 0 45 -4 49 -20 20z"/>
<path d="M4580 4119 l0 -40 48 6 c26 4 88 16 137 28 l90 21 -40 12 c-22 7 -84
13 -137 13 l-98 1 0 -41z"/>
<path d="M1587 4093 c-20 -69 -13 -117 23 -180 22 -37 10 -45 -14 -11 l-16 22
0 -27 c0 -22 5 -27 24 -27 14 0 27 4 30 8 3 4 0 39 -5 78 -5 38 -13 98 -17
134 l-7 65 -18 -62z"/>
<path d="M4199 4117 c-11 -16 -19 -31 -16 -33 5 -5 135 -34 154 -34 10 0 73
76 73 90 0 3 -43 5 -95 5 -92 0 -95 -1 -116 -28z"/>
<path d="M0 4110 c0 -24 7 -25 50 -6 25 10 29 14 15 20 -35 13 -65 7 -65 -14z"/>
<path d="M3100 4123 c0 -6 106 -134 163 -198 l45 -50 33 18 c63 34 70 43 79
104 4 32 6 60 4 62 -2 2 -51 10 -110 18 -58 7 -130 22 -160 32 -30 10 -54 16
-54 14z"/>
<path d="M5096 4111 c-3 -5 1 -11 9 -15 9 -3 15 0 15 9 0 16 -16 20 -24 6z"/>
<path d="M160 4106 c0 -2 7 -9 15 -16 12 -10 15 -10 15 4 0 9 -7 16 -15 16 -8
0 -15 -2 -15 -4z"/>
<path d="M1455 4084 c-3 -16 -17 -59 -30 -97 l-24 -67 52 -30 c72 -41 87 -40
80 8 -7 44 -49 181 -62 201 -8 12 -11 8 -16 -15z"/>
<path d="M48 4072 c-43 -25 -48 -30 -48 -64 l0 -37 39 14 c61 21 101 44 101
58 0 15 -28 57 -38 56 -4 0 -28 -12 -54 -27z"/>
<path d="M230 4089 c0 -11 36 -17 50 -9 7 5 0 9 -19 12 -17 2 -31 1 -31 -3z"/>
<path d="M817 4086 c-4 -9 2 -17 14 -21 28 -9 33 -1 10 19 -16 15 -19 15 -24
2z"/>
<path d="M2550 4076 c0 -35 169 -186 209 -186 7 0 25 13 41 30 31 33 31 33
-45 81 -89 57 -205 100 -205 75z"/>
<path d="M4440 4075 c-10 -12 -10 -15 3 -15 19 0 31 16 18 24 -5 3 -14 -1 -21
-9z"/>
<path d="M2287 3933 c-87 -80 -157 -146 -155 -148 2 -1 50 6 108 16 58 10 175
23 260 29 85 7 157 13 159 15 2 2 -27 37 -63 77 -37 40 -79 92 -94 115 -15 24
-34 43 -42 43 -8 -1 -86 -66 -173 -147z"/>
<path d="M4845 4060 c-38 -11 -113 -25 -165 -32 l-95 -14 -3 -54 -2 -55 112
-63 113 -63 34 18 c19 10 55 34 79 53 40 33 44 40 47 85 1 28 -2 71 -7 98 -11
54 -10 54 -113 27z"/>
<path d="M313 4063 c-28 -5 -29 -15 -5 -36 17 -16 20 -15 47 13 l29 30 -25 -1
c-13 -1 -34 -4 -46 -6z"/>
<path d="M3060 3976 c14 -92 15 -94 38 -85 45 17 57 7 15 -11 -24 -11 -43 -23
-43 -28 0 -11 112 -72 132 -72 8 0 23 9 33 20 17 19 17 21 -16 58 -19 21 -53
66 -77 99 -23 33 -55 72 -70 86 l-27 26 15 -93z"/>
<path d="M4997 4049 c4 -13 8 -18 11 -10 2 7 -1 18 -6 23 -8 8 -9 4 -5 -13z"/>
<path d="M3483 4047 c-3 -6 -9 -28 -13 -49 -7 -36 -6 -38 14 -32 61 20 125 34
154 34 73 0 9 32 -100 49 -31 5 -51 4 -55 -2z"/>
<path d="M220 4001 c0 -78 6 -85 46 -55 42 32 43 56 5 83 -43 31 -51 27 -51
-28z"/>
<path d="M406 3993 l-69 -57 29 -23 c62 -51 194 -134 203 -128 6 3 8 39 5 88
-3 45 -2 101 4 124 9 38 8 42 -12 47 -61 16 -90 7 -160 -51z"/>
<path d="M2968 4003 c-27 -27 -48 -53 -48 -58 0 -12 109 -89 116 -83 2 3 -2
46 -9 97 l-12 92 -47 -48z"/>
<path d="M5080 4016 c19 -20 36 -32 38 -26 4 11 -17 31 -53 51 -11 7 -5 -5 15
-25z"/>
<path d="M680 4020 c0 -11 2 -20 4 -20 2 0 6 9 9 20 3 11 1 20 -4 20 -5 0 -9
-9 -9 -20z"/>
<path d="M702 3986 c-21 -47 -22 -59 -12 -96 6 -23 15 -39 19 -34 8 9 33 124
35 158 2 39 -20 24 -42 -28z"/>
<path d="M5027 3973 c-3 -37 -4 -69 -2 -71 2 -2 13 1 24 8 32 17 25 -3 -8 -21
-23 -13 -29 -25 -33 -59 l-4 -41 34 6 c77 14 82 19 82 80 0 38 -4 54 -11 49
-8 -4 -8 -1 0 13 8 17 3 26 -33 62 l-43 42 -6 -68z"/>
<path d="M781 4001 c-14 -36 -28 -97 -35 -154 -5 -45 -4 -48 21 -58 52 -20
109 -21 173 -5 36 9 69 21 73 25 5 5 -19 49 -54 99 -60 84 -67 90 -116 104
l-52 15 -10 -26z"/>
<path d="M3947 4000 l-39 -5 34 -19 c18 -10 43 -28 55 -39 31 -28 38 -16 18
27 -21 44 -20 43 -68 36z"/>
<path d="M4105 4001 c-16 -26 21 -171 43 -171 39 0 156 121 136 140 -5 4 -36
12 -69 19 -33 6 -70 14 -81 17 -12 3 -25 1 -29 -5z"/>
<path d="M4480 4003 c-61 -8 -90 -15 -90 -21 0 -9 101 -54 107 -48 3 2 3 19 1
38 -2 23 -8 33 -18 31z"/>
<path d="M90 3974 c-30 -12 -63 -25 -72 -28 -13 -4 -18 -16 -18 -44 0 -36 3
-39 56 -65 31 -16 54 -31 51 -34 -3 -3 -27 6 -53 21 -25 14 -48 26 -50 26 -2
0 -4 -37 -4 -82 l0 -83 89 90 89 90 -11 62 c-7 34 -14 63 -17 66 -3 2 -30 -6
-60 -19z"/>
<path d="M1054 3981 c21 -24 175 -91 225 -98 l36 -6 -38 31 c-36 29 -190 92
-224 92 -14 0 -14 -2 1 -19z"/>
<path d="M3795 3912 c4 -37 10 -94 14 -127 7 -69 2 -68 121 -29 109 36 108 34
76 88 -32 55 -110 111 -175 125 l-44 9 8 -66z"/>
<path d="M3635 3943 c-95 -21 -165 -48 -165 -63 0 -70 75 -190 119 -190 22 0
74 61 96 114 8 19 15 60 15 91 0 59 -4 62 -65 48z"/>
<path d="M4337 3918 l-25 -31 86 -50 c48 -27 93 -54 100 -59 9 -8 12 3 12 49
l0 60 -70 32 c-39 17 -72 31 -74 31 -3 0 -16 -14 -29 -32z"/>
<path d="M320 3907 c0 -21 -50 -78 -61 -71 -16 10 -10 -25 26 -135 31 -95 39
-110 61 -115 23 -6 36 4 112 85 48 50 88 94 89 98 1 5 -195 139 -219 149 -4 2
-8 -3 -8 -11z"/>
<path d="M264 3878 l-29 -31 32 22 c35 23 50 41 35 41 -4 0 -21 -14 -38 -32z"/>
<path d="M1100 3896 c0 -7 40 -55 88 -106 98 -104 108 -107 142 -41 23 45 25
55 9 46 -5 -4 -18 0 -27 8 -31 27 -212 106 -212 93z"/>
<path d="M2877 3896 c-4 -9 4 -17 20 -21 35 -8 39 -1 9 18 -20 13 -25 14 -29
3z"/>
<path d="M4259 3809 l-40 -60 94 -44 c101 -48 112 -50 170 -34 33 9 37 13 37
42 -1 30 -7 35 -111 93 l-110 62 -40 -59z"/>
<path d="M1743 3853 c-24 -2 -43 -8 -43 -12 0 -19 119 -117 155 -128 35 -11
43 -10 89 15 46 25 51 31 58 72 5 31 4 46 -5 52 -12 8 -172 8 -254 1z"/>
<path d="M3382 3842 l-23 -18 21 -19 c12 -11 38 -41 57 -68 41 -56 53 -56 25
0 -11 21 -25 57 -32 81 -7 23 -16 42 -19 42 -3 0 -16 -8 -29 -18z"/>
<path d="M4050 3841 c5 -11 15 -23 20 -26 14 -9 12 19 -2 33 -19 19 -30 14
-18 -7z"/>
<path d="M4585 3789 c4 -41 10 -77 14 -81 7 -8 140 25 168 40 8 5 -24 27 -88
61 l-101 54 7 -74z"/>
<path d="M2037 3843 c-4 -3 -7 -18 -7 -31 l0 -25 25 23 c24 23 25 40 1 40 -7
0 -16 -3 -19 -7z"/>
<path d="M3718 3783 c-9 -37 -15 -69 -13 -71 2 -2 13 -1 24 3 17 5 21 14 20
43 -1 20 -4 49 -8 65 -5 24 -8 18 -23 -40z"/>
<path d="M4902 3802 c-67 -50 -67 -61 3 -42 37 10 46 18 56 47 6 19 9 36 7 38
-1 2 -31 -18 -66 -43z"/>
<path d="M1601 3821 c-11 -7 -9 -21 9 -77 37 -109 101 -159 154 -119 18 14 18
16 -9 62 -71 123 -86 143 -114 143 -14 0 -32 -4 -40 -9z"/>
<path d="M1420 3798 c0 -12 128 -94 135 -86 1 1 -2 24 -8 51 -9 36 -16 47 -31
47 -16 0 -17 -3 -8 -12 17 -17 15 -29 -3 -22 -8 4 -15 12 -15 20 0 9 -12 14
-35 14 -21 0 -35 -5 -35 -12z"/>
<path d="M109 3723 l-74 -77 102 -20 c57 -11 105 -17 108 -14 7 7 -47 188 -56
188 -3 0 -39 -35 -80 -77z"/>
<path d="M2818 3789 c-16 -6 -28 -17 -28 -24 0 -11 133 -113 223 -170 l27 -17
0 96 c0 96 0 97 -27 107 -40 15 -163 20 -195 8z"/>
<path d="M4179 3783 c-13 -16 -12 -17 4 -4 16 13 21 21 13 21 -2 0 -10 -8 -17
-17z"/>
<path d="M635 3780 c-3 -5 -1 -10 4 -10 6 0 11 5 11 10 0 6 -2 10 -4 10 -3 0
-8 -4 -11 -10z"/>
<path d="M1050 3785 c0 -2 15 -39 34 -82 19 -43 40 -97 48 -120 7 -24 15 -43
18 -43 3 0 19 21 37 48 l31 47 -76 78 c-68 68 -92 87 -92 72z"/>
<path d="M5056 3771 c-50 -15 -61 -22 -67 -45 -9 -32 -6 -33 74 -39 l57 -4 0
54 c0 29 -1 52 -2 52 -2 -1 -30 -9 -62 -18z"/>
<path d="M960 3753 c-31 -10 -70 -13 -123 -10 l-77 5 17 -30 c29 -50 133 -147
219 -204 45 -30 86 -54 91 -54 5 0 18 9 27 19 17 19 17 23 -4 88 -33 100 -81
203 -94 202 -6 -1 -31 -8 -56 -16z"/>
<path d="M1362 3706 l-34 -51 39 -33 c109 -93 138 -102 216 -68 18 7 44 18 60
24 15 7 27 16 27 22 0 12 -39 37 -65 42 -11 2 -27 9 -36 17 -9 7 -52 32 -95
56 l-79 42 -33 -51z"/>
<path d="M3295 3750 c-3 -6 6 -15 20 -20 15 -6 36 -15 48 -21 13 -6 7 3 -13
20 -38 33 -46 36 -55 21z"/>
<path d="M4102 3728 c13 -40 28 -59 28 -36 0 26 -18 68 -29 68 -6 0 -6 -12 1
-32z"/>
<path d="M1772 3700 c35 -53 48 -59 68 -35 8 9 8 15 2 15 -6 0 -31 16 -56 35
l-46 35 32 -50z"/>
<path d="M2295 3736 c-49 -7 -125 -23 -168 -36 -95 -28 -97 -32 -97 -170 0
-115 -8 -106 123 -140 87 -23 88 -23 106 -4 10 10 93 97 186 192 l168 172
-114 -1 c-63 -1 -154 -7 -204 -13z"/>
<path d="M3080 3694 l0 -57 30 38 c35 44 36 51 11 65 -35 18 -41 12 -41 -46z"/>
<path d="M3933 3711 l-113 -36 0 -46 0 -47 105 -42 c119 -48 112 -49 155 31
19 37 19 37 -2 100 -11 35 -23 67 -27 70 -3 3 -57 -10 -118 -30z"/>
<path d="M518 3651 c-43 -49 -62 -78 -55 -82 7 -4 35 -10 63 -14 l51 -6 7 86
c4 48 6 88 4 90 -2 1 -33 -32 -70 -74z"/>
<path d="M610 3666 c0 -35 -3 -77 -6 -93 l-6 -30 101 -11 c157 -18 152 -21 89
51 -30 34 -67 81 -83 105 -23 36 -33 42 -61 42 l-34 0 0 -64z"/>
<path d="M4181 3682 c-15 -35 -19 -56 -13 -80 4 -18 10 -34 13 -35 9 -4 189
57 189 63 0 4 -10 12 -22 18 -13 6 -51 26 -84 46 l-61 34 -22 -46z"/>
<path d="M4895 3721 c-19 -8 -19 -8 4 -20 19 -11 25 -11 32 0 18 29 5 36 -36
20z"/>
<path d="M2499 3529 l-194 -192 70 -8 c39 -5 133 -15 210 -24 77 -8 152 -18
168 -21 l27 -6 -4 98 c-10 197 -40 344 -71 344 -7 0 -99 -86 -206 -191z"/>
<path d="M2794 3685 c10 -27 36 -196 36 -237 0 -20 4 -39 8 -42 5 -3 43 30 85
72 l77 77 -95 70 c-106 78 -121 86 -111 60z"/>
<path d="M3146 3635 c-47 -43 -67 -68 -63 -78 3 -9 30 -34 59 -56 29 -23 59
-46 67 -52 10 -9 15 -8 22 2 13 20 49 118 49 132 0 7 7 22 15 34 14 20 13 23
-7 37 -12 9 -28 16 -35 16 -6 0 -18 6 -25 13 -11 12 -25 4 -82 -48z"/>
<path d="M3673 3652 c-28 -4 -30 -18 -4 -25 12 -3 22 1 26 11 7 18 6 19 -22
14z"/>
<path d="M3721 3641 c-11 -20 -5 -31 16 -31 7 0 13 11 13 25 0 29 -15 33 -29
6z"/>
<path d="M4708 3643 c-16 -2 -28 -9 -28 -14 0 -14 44 -11 66 6 20 15 16 16
-38 8z"/>
<path d="M1911 3610 c-30 -17 -57 -32 -60 -35 -6 -6 96 -112 120 -125 14 -8
16 2 15 90 -1 59 -5 100 -11 100 -5 0 -34 -14 -64 -30z"/>
<path d="M4780 3611 l-34 -28 51 -27 c29 -14 54 -26 57 -26 6 0 43 64 51 89 6
19 3 21 -42 21 -39 0 -56 -6 -83 -29z"/>
<path d="M4926 3568 l-37 -61 31 -41 c45 -60 107 -174 126 -229 9 -27 20 -45
24 -40 5 4 18 36 29 70 17 52 21 87 21 206 l0 144 -46 7 c-104 14 -108 12
-148 -56z"/>
<path d="M3437 3588 c21 -17 55 -48 76 -67 l38 -36 -19 50 c-20 53 -62 85
-110 85 -21 0 -19 -3 15 -32z"/>
<path d="M4601 3603 c1 -10 4 -30 8 -45 l6 -27 33 21 34 21 -24 13 c-12 7 -21
16 -18 21 3 4 -5 9 -17 11 -17 3 -23 -1 -22 -15z"/>
<path d="M3326 3569 c-7 -46 -35 -105 -78 -165 l-30 -42 41 -107 c22 -59 42
-109 44 -112 2 -2 24 5 48 15 25 11 59 23 77 27 18 3 32 13 32 20 0 8 20 53
45 99 66 125 64 136 -38 217 -73 59 -117 89 -130 89 -2 0 -7 -18 -11 -41z"/>
<path d="M0 3451 c0 -148 0 -151 23 -155 88 -18 80 -22 155 68 l70 83 -73 73
c-68 68 -77 73 -124 78 l-51 5 0 -152z"/>
<path d="M1231 3524 c-29 -36 -50 -68 -48 -70 2 -3 53 6 112 18 l107 23 -55
48 c-30 26 -57 47 -59 47 -2 0 -28 -30 -57 -66z"/>
<path d="M4486 3582 c-3 -5 9 -22 26 -38 l31 -29 -6 25 c-4 14 -7 31 -7 38 0
13 -36 17 -44 4z"/>
<path d="M185 3569 c9 -21 89 -79 97 -71 15 15 -15 72 -37 72 -11 0 -30 3 -43
6 -16 5 -21 3 -17 -7z"/>
<path d="M3580 3578 c0 -4 15 -40 33 -80 32 -69 94 -155 104 -144 9 9 -66 151
-101 191 -20 22 -35 37 -36 33z"/>
<path d="M4110 3555 c0 -8 4 -15 10 -15 5 0 7 7 4 15 -4 8 -8 15 -10 15 -2 0
-4 -7 -4 -15z"/>
<path d="M4325 3539 c-44 -17 -88 -33 -97 -36 -23 -7 -23 -25 3 -74 20 -39 22
-41 57 -34 47 9 146 50 189 79 l32 22 -37 37 c-21 20 -44 37 -52 36 -8 0 -51
-14 -95 -30z"/>
<path d="M4678 3533 c-32 -20 -58 -41 -58 -47 0 -16 28 -117 34 -123 11 -11
186 137 186 157 0 6 -43 27 -95 46 -5 2 -36 -13 -67 -33z"/>
<path d="M3674 3525 c10 -15 28 -44 39 -64 21 -35 21 -35 28 -10 15 54 11 76
-18 82 -16 3 -37 9 -48 13 -20 8 -20 8 -1 -21z"/>
<path d="M401 3526 c-9 -11 6 -30 75 -95 48 -44 91 -81 96 -81 5 0 8 37 6 82
l-3 83 -65 12 c-85 16 -95 16 -109 -1z"/>
<path d="M2979 3472 c-113 -118 -130 -141 -127 -175 3 -31 5 -33 70 -46 64
-13 68 -13 103 9 l36 22 -7 117 c-4 64 -9 119 -13 123 -4 4 -32 -18 -62 -50z"/>
<path d="M600 3418 c0 -63 4 -98 11 -98 5 0 96 21 201 47 190 46 190 46 167
64 -57 44 -104 57 -241 71 l-138 13 0 -97z"/>
<path d="M1654 3495 c-19 -14 -19 -14 2 -15 12 0 27 7 34 15 17 20 -9 21 -36
0z"/>
<path d="M1786 3488 c-20 -28 -15 -34 40 -43 26 -3 53 -9 62 -12 8 -4 -5 12
-30 35 -25 23 -48 42 -51 42 -3 0 -13 -10 -21 -22z"/>
<path d="M3820 3440 c0 -38 2 -70 4 -70 8 0 126 72 131 80 4 6 -113 60 -130
60 -3 0 -5 -31 -5 -70z"/>
<path d="M4856 3473 c-12 -17 -14 -23 -5 -19 8 5 1 -4 -16 -18 -44 -40 -143
-114 -157 -118 -10 -4 -7 -23 10 -79 34 -108 63 -179 74 -179 5 0 6 -5 2 -12
-4 -7 -3 -8 4 -4 6 4 52 -9 103 -29 50 -19 93 -35 95 -35 2 0 22 36 44 79 l39
79 -153 -5 c-86 -3 -155 -2 -159 3 -3 5 30 8 76 6 45 -1 118 1 162 5 76 8 80
9 78 31 -6 52 -95 217 -160 299 l-18 22 -19 -26z"/>
<path d="M3085 3403 c4 -49 9 -89 10 -91 6 -7 85 71 85 83 0 12 -83 95 -96 95
-3 0 -3 -39 1 -87z"/>
<path d="M381 3458 c30 -58 91 -138 100 -132 5 3 16 0 24 -6 8 -6 22 -10 32
-8 14 3 0 22 -63 86 -82 82 -117 105 -93 60z"/>
<path d="M1340 3449 c-41 -10 -97 -22 -125 -27 l-50 -7 62 -24 63 -23 167 22
c93 12 174 24 182 26 25 8 -2 21 -78 38 -91 20 -125 19 -221 -5z"/>
<path d="M4135 3461 c-3 -6 3 -15 14 -20 27 -15 30 -14 24 9 -6 21 -28 27 -38
11z"/>
<path d="M4430 3414 c-52 -24 -100 -44 -107 -44 -31 0 -17 -22 45 -69 73 -57
88 -59 165 -27 34 14 37 18 37 56 0 55 -20 130 -34 129 -6 0 -54 -21 -106 -45z"/>
<path d="M260 3363 c-85 -106 -89 -97 34 -90 60 3 110 8 113 11 8 7 -78 136
-90 136 -7 -1 -32 -26 -57 -57z"/>
<path d="M1750 3410 c0 -26 175 -250 195 -250 17 0 85 31 85 39 0 3 -9 38 -19
76 -14 55 -21 69 -35 67 -9 -2 -31 6 -49 16 -48 29 -177 67 -177 52z"/>
<path d="M3958 3357 c-78 -52 -91 -70 -62 -81 31 -12 99 29 127 77 43 73 39
74 -65 4z"/>
<path d="M808 3337 l-197 -50 61 -79 c34 -43 64 -80 67 -82 3 -2 49 25 101 60
52 35 118 75 147 89 49 26 73 58 73 101 0 21 -38 16 -252 -39z"/>
<path d="M1702 3362 c-25 -35 -102 -192 -102 -206 0 -6 29 -30 64 -54 l63 -42
73 33 c48 22 69 36 61 41 -7 5 -32 49 -55 100 -24 50 -52 106 -63 124 l-21 33
-20 -29z"/>
<path d="M4052 3350 l-23 -40 49 0 c26 0 71 -6 100 -14 52 -13 63 -8 44 21 -8
12 -125 73 -140 73 -4 0 -17 -18 -30 -40z"/>
<path d="M1470 3364 c-52 -8 -101 -17 -109 -19 -8 -3 23 -28 74 -61 49 -30 94
-53 101 -50 7 3 29 37 49 76 l35 70 -27 -1 c-16 -1 -71 -7 -123 -15z"/>
<path d="M3586 3345 c-4 -20 -16 -57 -27 -82 -11 -25 -18 -47 -17 -48 2 -1 18
2 36 7 l32 9 0 69 c0 75 -14 101 -24 45z"/>
<path d="M1090 3330 c-17 -40 -11 -43 29 -18 31 20 32 22 15 35 -25 19 -30 17
-44 -17z"/>
<path d="M3640 3302 c0 -56 6 -62 38 -34 l21 17 -29 35 -30 34 0 -52z"/>
<path d="M2054 3304 c11 -60 16 -74 29 -74 26 1 102 46 105 62 3 17 -22 27
-107 44 l-34 7 7 -39z"/>
<path d="M3153 3298 c-49 -37 -53 -44 -53 -82 0 -39 2 -43 60 -79 58 -36 61
-37 90 -22 17 9 30 21 30 28 0 20 -50 163 -63 180 -11 13 -18 10 -64 -25z"/>
<path d="M1131 3290 c-29 -22 -57 -37 -61 -35 -10 6 -20 -30 -20 -70 0 -17 15
-60 33 -97 l32 -66 74 29 c100 40 236 79 277 79 19 0 34 4 34 10 0 16 -89 76
-201 135 -59 30 -108 55 -110 55 -2 -1 -28 -19 -58 -40z"/>
<path d="M4280 3283 c0 -13 29 -38 35 -31 3 3 -4 13 -15 23 -11 10 -20 13 -20
8z"/>
<path d="M528 3273 l-26 -4 71 -112 c39 -62 72 -114 73 -116 2 -1 21 12 43 29
l40 33 -46 51 c-25 28 -57 68 -71 89 -13 20 -32 36 -41 36 -9 -1 -28 -4 -43
-6z"/>
<path d="M4608 3275 c-3 -4 -32 -17 -63 -30 l-57 -23 38 -12 c22 -7 56 -21 77
-32 42 -21 43 -19 24 55 -7 27 -15 45 -19 42z"/>
<path d="M3989 3261 c-14 -4 -35 -13 -47 -20 l-21 -11 20 -47 c11 -26 22 -49
24 -51 5 -5 285 81 285 88 0 4 -26 15 -57 25 -66 20 -166 28 -204 16z"/>
<path d="M0 3201 c0 -33 2 -61 4 -61 8 0 77 102 73 106 -3 3 -21 8 -41 11
l-36 6 0 -62z"/>
<path d="M356 3239 c-22 -5 -44 -13 -50 -18 -6 -5 -44 -13 -83 -16 -88 -9 -86
1 -41 -184 l33 -134 86 6 c144 11 274 45 294 77 7 11 -3 29 -99 183 -65 104
-65 104 -140 86z"/>
<path d="M912 3193 c-51 -32 -103 -67 -117 -78 l-25 -20 51 -75 c28 -41 54
-74 56 -73 3 1 18 30 35 65 16 34 44 87 63 118 34 56 54 120 38 120 -5 0 -51
-26 -101 -57z"/>
<path d="M2234 3219 c-8 -17 -22 -48 -29 -68 l-13 -37 122 -17 c66 -9 150 -24
185 -33 l63 -16 81 80 c45 45 79 84 76 87 -13 13 -225 35 -341 35 l-127 0 -17
-31z"/>
<path d="M3045 3236 l-20 -16 20 -16 c18 -14 20 -14 23 0 2 9 2 23 0 32 -3 14
-5 14 -23 0z"/>
<path d="M3797 3243 c-9 -9 -9 -55 1 -70 5 -8 19 0 45 23 21 19 35 39 32 44
-7 11 -68 14 -78 3z"/>
<path d="M156 3222 c-2 -4 14 -6 37 -4 68 5 76 10 20 11 -28 0 -54 -2 -57 -7z"/>
<path d="M2119 3209 c-34 -17 -36 -21 -30 -51 11 -51 42 -45 58 12 7 25 12 48
11 51 -2 4 -19 -1 -39 -12z"/>
<path d="M3677 3166 c-42 -39 -43 -41 -20 -112 l16 -53 36 21 c20 12 40 24 44
28 8 7 -20 127 -33 143 -3 4 -23 -8 -43 -27z"/>
<path d="M3847 3162 c-34 -34 -37 -42 -28 -65 l10 -27 53 21 c29 11 54 22 56
24 7 7 -31 85 -42 85 -7 0 -29 -17 -49 -38z"/>
<path d="M2752 3135 c-19 -31 -32 -60 -30 -65 2 -5 23 2 46 16 35 21 43 30 38
48 -3 11 -6 29 -6 39 0 30 -14 19 -48 -38z"/>
<path d="M2850 3172 c0 -29 10 -33 42 -16 34 18 28 34 -13 34 -21 0 -29 -5
-29 -18z"/>
<path d="M4130 3148 c-74 -22 -138 -43 -142 -47 -4 -3 9 -59 28 -124 18 -65
34 -125 34 -133 0 -22 14 -16 38 15 11 16 66 76 121 134 56 59 101 109 101
111 0 13 -33 86 -39 85 -3 0 -67 -18 -141 -41z"/>
<path d="M4320 3185 c0 -2 5 -15 12 -29 10 -24 12 -24 24 -8 9 12 9 21 2 29
-10 12 -38 18 -38 8z"/>
<path d="M74 3114 c-70 -96 -74 -105 -74 -173 l0 -61 95 0 c84 0 95 2 95 18
-1 9 -15 77 -33 151 l-33 135 -50 -70z"/>
<path d="M4520 3176 c0 -8 143 -97 147 -92 15 15 -30 53 -86 73 -33 12 -61 21
-61 19z"/>
<path d="M2910 3132 l-55 -37 3 -68 3 -67 53 0 c29 0 74 -6 99 -14 26 -8 49
-11 51 -8 6 10 8 57 7 134 l-1 66 -47 16 c-26 9 -49 16 -52 16 -3 0 -31 -17
-61 -38z"/>
<path d="M4370 3155 c-7 -8 -12 -25 -12 -38 0 -20 58 -217 67 -225 2 -2 17 4
35 13 38 20 50 49 50 125 l0 58 -52 34 c-76 50 -75 49 -88 33z"/>
<path d="M2015 3150 c-3 -5 -1 -10 4 -10 6 0 11 5 11 10 0 6 -2 10 -4 10 -3 0
-8 -4 -11 -10z"/>
<path d="M979 3078 c-43 -77 -61 -119 -55 -126 3 -2 41 10 84 27 l78 32 -30
64 c-17 35 -33 64 -36 64 -3 1 -22 -27 -41 -61z"/>
<path d="M3473 3130 c-19 -8 -43 -38 -43 -54 0 -3 23 9 50 26 28 17 50 33 50
34 0 7 -35 3 -57 -6z"/>
<path d="M3095 3102 c-4 -15 -6 -60 -6 -101 1 -60 4 -78 20 -92 19 -18 19 -17
26 31 4 27 19 69 35 93 l27 43 -47 27 -48 27 -7 -28z"/>
<path d="M3368 3114 c-34 -14 -36 -18 -26 -40 6 -13 14 -24 18 -24 3 0 18 18
33 40 29 44 28 45 -25 24z"/>
<path d="M2642 3064 l-33 -34 26 -10 c41 -16 45 -13 45 35 0 25 -1 45 -2 44
-2 0 -18 -16 -36 -35z"/>
<path d="M1889 3074 c-36 -12 -109 -53 -109 -60 0 -18 55 -71 101 -99 30 -17
97 -62 147 -99 51 -36 95 -66 98 -66 21 0 -47 297 -74 321 -14 13 -130 15
-163 3z"/>
<path d="M3566 3011 c-15 -46 -25 -85 -22 -88 2 -2 23 8 46 23 45 30 47 42 17
115 l-13 33 -28 -83z"/>
<path d="M3883 3070 c-24 -10 -43 -22 -43 -26 0 -3 21 -50 46 -104 45 -96 47
-98 90 -109 23 -6 48 -11 54 -11 13 0 14 -4 -34 153 -41 130 -41 130 -113 97z"/>
<path d="M4192 2958 c-68 -71 -122 -134 -120 -140 2 -6 37 -21 77 -33 84 -27
83 -27 188 43 47 31 52 38 47 61 -11 45 -54 175 -61 188 -5 7 -52 -36 -131
-119z"/>
<path d="M5104 3073 c-6 -10 -23 -39 -38 -65 l-27 -47 33 -9 c18 -5 37 -6 41
-2 4 4 7 37 5 74 -2 53 -5 63 -14 49z"/>
<path d="M703 3047 l-36 -34 24 -68 c13 -37 28 -69 34 -72 6 -2 40 9 74 24
l63 28 -57 78 c-31 42 -58 77 -61 77 -2 0 -21 -15 -41 -33z"/>
<path d="M1567 3058 c-12 -47 -29 -248 -23 -264 5 -13 16 -3 47 42 23 33 56
75 75 94 l34 36 -48 45 c-74 71 -79 73 -85 47z"/>
<path d="M2124 3067 c-3 -8 -1 -36 4 -63 l10 -49 1 63 c1 60 -4 77 -15 49z"/>
<path d="M2176 3042 c-9 -55 -7 -141 5 -192 16 -73 15 -72 51 -50 37 22 48 25
48 10 0 -5 -18 -19 -41 -30 -28 -15 -39 -26 -35 -38 2 -9 7 -32 11 -49 4 -18
8 -33 11 -33 2 0 39 26 81 58 43 31 99 71 125 87 27 17 48 38 48 47 0 9 6 18
12 20 8 3 11 20 9 46 -2 30 3 50 18 70 l20 29 -87 21 c-48 12 -112 24 -142 27
-30 3 -71 8 -91 10 -35 5 -37 4 -43 -33z m134 -222 c0 -5 -5 -10 -11 -10 -5 0
-7 5 -4 10 3 6 8 10 11 10 2 0 4 -4 4 -10z"/>
<path d="M1391 3044 c-47 -14 -117 -38 -157 -55 l-73 -30 46 -77 c25 -42 49
-81 53 -85 4 -5 34 9 66 31 33 21 75 48 94 58 45 24 47 27 54 88 4 28 10 61
13 74 6 27 8 27 -96 -4z"/>
<path d="M2758 3042 c-21 -15 -37 -29 -38 -33 0 -3 20 -15 45 -27 l45 -22 0
55 c0 30 -3 55 -7 54 -5 0 -25 -13 -45 -27z"/>
<path d="M3251 3044 c-18 -23 -51 -111 -51 -137 0 -5 28 16 62 47 34 31 66 56
72 56 5 0 -3 14 -19 30 -16 17 -32 30 -36 30 -4 0 -17 -12 -28 -26z"/>
<path d="M4550 3021 c0 -22 -3 -48 -7 -58 -5 -13 5 -8 35 15 46 37 46 44 1 67
l-29 16 0 -40z"/>
<path d="M3447 3015 c-35 -27 -47 -41 -42 -53 4 -10 10 -48 13 -86 l5 -69 17
34 c24 47 62 174 58 194 -2 14 -12 10 -51 -20z"/>
<path d="M4781 3010 c7 -13 35 -55 63 -92 l50 -68 19 31 c11 16 18 31 16 33
-2 1 -28 17 -58 36 -30 19 -65 45 -78 59 l-25 26 13 -25z"/>
<path d="M3733 2994 l-41 -25 15 -38 c14 -36 18 -38 76 -49 33 -6 63 -10 65
-8 3 4 -66 146 -71 146 -1 -1 -21 -12 -44 -26z"/>
<path d="M4590 2954 l-55 -44 -17 -87 c-9 -49 -17 -105 -17 -126 -1 -45 11
-52 119 -62 l75 -6 62 74 62 75 -49 82 c-60 99 -66 108 -99 124 -24 12 -30 10
-81 -30z"/>
<path d="M2540 2971 c-15 -28 -12 -46 9 -65 18 -16 20 -15 54 26 35 42 36 43
14 50 -41 12 -66 8 -77 -11z"/>
<path d="M594 2922 c-10 -15 -28 -48 -40 -73 -12 -26 -27 -50 -33 -53 -15 -10
-14 0 3 27 8 12 22 39 31 60 l16 38 -30 -15 c-29 -15 -138 -37 -253 -51 -67
-8 -67 -8 -38 -112 25 -92 50 -153 61 -153 5 0 48 36 96 80 55 50 118 95 168
121 44 23 82 43 84 45 5 4 -30 103 -39 109 -4 3 -16 -8 -26 -23z"/>
<path d="M1090 2934 c-19 -8 -62 -26 -95 -40 -92 -39 -98 -45 -79 -82 15 -32
22 -35 84 -47 19 -4 66 -21 103 -38 l68 -30 37 36 37 37 -29 53 c-47 83 -76
127 -84 126 -4 0 -23 -7 -42 -15z"/>
<path d="M2630 2909 l-40 -41 81 -86 c44 -47 90 -98 102 -114 11 -15 27 -28
35 -28 13 0 14 14 9 83 -4 45 -7 109 -7 143 l0 61 -51 11 c-76 18 -86 16 -129
-29z"/>
<path d="M3333 2893 c-15 -32 -46 -84 -71 -117 l-45 -58 17 -35 16 -34 50 58
c79 92 102 152 84 221 -10 35 -23 26 -51 -35z"/>
<path d="M1683 2907 c-46 -53 -123 -173 -123 -193 0 -11 14 -65 31 -121 l32
-103 84 0 c83 0 84 0 113 34 17 19 48 41 70 50 22 9 40 18 40 20 0 17 -194
331 -210 341 -4 3 -21 -10 -37 -28z"/>
<path d="M3588 2887 c-45 -33 -61 -53 -76 -92 -22 -57 -58 -203 -51 -209 2 -2
31 0 64 6 59 10 176 4 201 -10 7 -4 -48 -7 -123 -7 -122 0 -136 -2 -149 -19
-26 -36 -18 -78 21 -109 31 -25 40 -27 68 -19 46 15 267 24 244 11 -9 -6 -61
-15 -115 -20 -167 -17 -165 -16 -97 -99 25 -30 45 -58 45 -62 0 -24 -23 -10
-69 43 -29 32 -58 59 -65 59 -29 0 -59 -49 -64 -102 -4 -49 -1 -58 39 -118 54
-80 92 -100 274 -145 l130 -32 3 23 c2 17 -13 39 -64 87 -85 81 -82 106 5 42
l64 -47 -7 94 c-6 98 -32 217 -65 303 -18 47 -21 50 -53 48 l-33 -2 28 11 c15
7 27 16 27 21 0 14 -102 331 -110 342 -4 6 -9 18 -11 27 -3 13 -15 9 -61 -25z"/>
<path d="M2865 2804 c4 -65 11 -123 15 -128 11 -11 65 23 109 68 18 19 42 59
52 88 l18 53 -29 12 c-16 7 -62 16 -101 19 l-72 7 8 -119z"/>
<path d="M3253 2879 c-56 -37 -63 -45 -62 -73 1 -75 13 -73 65 10 60 94 66
104 62 104 -2 0 -31 -19 -65 -41z"/>
<path d="M4456 2879 c-25 -20 -27 -26 -21 -67 13 -89 20 -90 39 -3 10 45 16
84 14 87 -3 2 -17 -5 -32 -17z"/>
<path d="M1860 2885 c0 -3 32 -69 71 -146 l70 -141 26 23 c14 13 39 41 55 62
30 38 31 39 12 57 -27 26 -213 150 -224 150 -6 0 -10 -2 -10 -5z"/>
<path d="M4961 2853 c-24 -29 -28 -40 -20 -55 13 -24 22 -18 53 38 30 54 30
54 12 54 -8 0 -28 -16 -45 -37z"/>
<path d="M3076 2869 c-2 -8 -6 -26 -9 -41 -4 -24 -2 -26 15 -17 27 15 33 38
15 57 -14 13 -17 13 -21 1z"/>
<path d="M1394 2833 c-34 -21 -74 -47 -89 -59 l-28 -21 33 -62 c18 -34 49 -76
68 -93 34 -29 36 -30 49 -12 24 33 34 92 31 189 l-3 96 -61 -38z"/>
<path d="M5027 2801 l-46 -69 35 -46 c36 -47 61 -66 88 -66 14 0 16 18 16 125
0 125 0 125 -24 125 -18 0 -34 -16 -69 -69z"/>
<path d="M2556 2829 c10 -11 28 -26 39 -31 14 -8 12 -2 -9 21 -33 34 -61 44
-30 10z"/>
<path d="M3740 2843 c0 -4 20 -69 46 -145 l45 -136 48 -4 c91 -6 95 1 60 105
-44 132 -58 156 -98 166 -71 18 -101 22 -101 14z"/>
<path d="M83 2829 c-35 -4 -67 -11 -73 -14 -6 -4 -10 -76 -10 -185 0 -190 0
-190 51 -190 37 0 239 117 239 139 0 11 -47 53 -130 114 -96 70 -154 117 -146
117 8 0 194 -137 228 -168 l27 -24 -30 91 c-16 50 -29 100 -29 111 0 22 -17
24 -127 9z"/>
<path d="M840 2815 c-10 -13 -9 -15 9 -15 11 0 21 4 21 9 0 18 -18 21 -30 6z"/>
<path d="M4337 2791 c-32 -21 -58 -42 -58 -46 0 -4 32 -22 72 -41 l72 -34 -7
60 c-12 106 -12 106 -79 61z"/>
<path d="M2439 2782 c-47 -32 -109 -85 -109 -94 0 -4 10 -8 23 -8 38 0 67 -12
67 -26 0 -17 -8 -17 -66 -3 -43 11 -47 10 -74 -16 -22 -21 -27 -32 -20 -45 8
-15 16 -16 74 -6 36 6 69 16 75 21 7 7 62 195 57 195 -1 0 -13 -8 -27 -18z"/>
<path d="M3960 2797 c0 -3 17 -45 38 -94 35 -87 38 -90 60 -80 21 9 23 16 18
46 -14 83 -26 109 -54 115 -15 4 -35 9 -44 12 -10 3 -18 3 -18 1z"/>
<path d="M2530 2770 c-19 -35 -61 -152 -57 -157 8 -7 267 10 267 18 0 4 -21
36 -48 71 -38 50 -54 64 -82 69 -19 3 -43 10 -52 13 -11 5 -20 1 -28 -14z"/>
<path d="M3158 2687 c-3 -50 -3 -95 -1 -99 5 -9 59 17 68 32 4 6 -5 35 -19 66
-14 31 -26 62 -26 70 0 7 -4 15 -9 18 -5 3 -11 -36 -13 -87z"/>
<path d="M3025 2723 c-68 -57 -121 -111 -114 -117 2 -2 39 -7 82 -11 l77 -7 0
44 c0 23 5 60 11 81 6 21 9 43 7 49 -2 6 -31 -12 -63 -39z"/>
<path d="M4077 2710 c9 -33 19 -60 22 -60 12 0 91 61 91 70 0 8 -100 50 -119
50 -5 0 -2 -27 6 -60z"/>
<path d="M3380 2712 c-18 -26 -49 -63 -67 -83 -34 -35 -34 -38 -20 -65 8 -16
29 -34 46 -41 28 -10 31 -9 36 10 25 110 46 220 42 223 -2 2 -19 -17 -37 -44z"/>
<path d="M676 2731 c-14 -15 -14 -20 0 -46 21 -41 21 -41 38 -7 25 48 -5 90
-38 53z"/>
<path d="M4784 2693 c-21 -32 -40 -61 -42 -65 -2 -5 26 -8 62 -8 l66 0 0 57 0
57 -35 -34 c-40 -38 -45 -33 -14 16 35 57 4 37 -37 -23z"/>
<path d="M825 2703 c31 -85 68 -170 87 -195 16 -23 27 -28 59 -28 34 0 39 3
35 18 -3 9 -13 51 -22 92 -9 41 -25 92 -35 113 -19 36 -20 37 -79 37 l-59 0
14 -37z"/>
<path d="M1226 2711 l-28 -30 60 -30 61 -31 -30 58 c-17 31 -32 58 -33 59 -1
2 -15 -10 -30 -26z"/>
<path d="M1016 2672 c13 -32 24 -63 24 -69 0 -20 11 -16 57 21 49 39 48 40
-43 78 l-61 26 23 -56z"/>
<path d="M545 2689 c-72 -45 -94 -67 -88 -90 4 -14 10 -18 22 -13 9 4 53 10
98 13 45 3 84 9 88 13 9 9 -43 108 -58 108 -6 0 -34 -14 -62 -31z"/>
<path d="M4177 2665 c-36 -25 -68 -49 -72 -55 -4 -6 1 -44 10 -85 l16 -73 50
-12 c89 -21 188 10 209 66 23 59 13 87 -44 137 -84 72 -92 73 -169 22z"/>
<path d="M2086 2630 c-35 -51 -46 -75 -41 -90 6 -18 12 -20 38 -15 18 4 35 10
39 14 7 7 23 161 16 161 -2 0 -26 -31 -52 -70z"/>
<path d="M4461 2684 c0 -11 3 -14 6 -6 3 7 2 16 -1 19 -3 4 -6 -2 -5 -13z"/>
<path d="M743 2667 c-10 -21 -7 -27 23 -51 19 -15 34 -25 34 -22 0 8 -39 96
-43 96 -2 0 -9 -10 -14 -23z"/>
<path d="M4365 2645 c20 -15 39 -24 42 -22 5 5 -60 47 -72 47 -4 0 9 -11 30
-25z"/>
<path d="M1482 2630 c-15 -42 -16 -40 8 -40 21 0 25 19 11 54 -7 18 -9 16 -19
-14z"/>
<path d="M4940 2635 c0 -8 7 -15 16 -15 14 0 14 3 4 15 -7 8 -14 15 -16 15 -2
0 -4 -7 -4 -15z"/>
<path d="M1116 2599 c-50 -44 -56 -68 -36 -140 9 -32 15 -37 48 -43 20 -3 72
-6 114 -6 l77 0 26 37 c14 21 25 43 25 49 0 21 -167 144 -196 144 -6 0 -32
-18 -58 -41z"/>
<path d="M4510 2602 c0 -4 16 -20 35 -35 l35 -28 30 23 c27 19 28 23 13 29
-31 11 -113 19 -113 11z"/>
<path d="M2202 2588 c-18 -18 -15 -28 7 -28 26 0 34 15 18 29 -10 8 -17 7 -25
-1z"/>
<path d="M4049 2590 c-32 -19 9 -130 48 -130 16 0 16 8 1 82 -12 58 -19 65
-49 48z"/>
<path d="M4440 2581 c0 -12 5 -21 10 -21 6 0 10 6 10 14 0 8 -4 18 -10 21 -5
3 -10 -3 -10 -14z"/>
<path d="M515 2570 c-16 -7 -11 -9 20 -9 22 0 49 4 60 9 16 7 11 9 -20 9 -22
0 -49 -4 -60 -9z"/>
<path d="M3230 2576 c0 -2 7 -6 15 -10 8 -3 15 -1 15 4 0 6 -7 10 -15 10 -8 0
-15 -2 -15 -4z"/>
<path d="M650 2505 c-59 -60 -57 -61 40 -40 36 8 79 14 97 15 22 0 31 4 27 13
-5 15 -83 67 -99 67 -6 0 -35 -25 -65 -55z"/>
<path d="M2508 2553 l-56 -4 -21 -60 -20 -59 60 -50 c34 -28 70 -50 83 -50 13
0 50 -3 84 -6 l60 -7 56 53 c31 29 56 59 56 66 0 8 -12 38 -27 69 l-27 55 -96
-2 c-52 -1 -121 -3 -152 -5z"/>
<path d="M4500 2558 c0 -4 5 -19 10 -34 8 -21 13 -25 22 -16 9 9 7 17 -10 34
-12 12 -22 19 -22 16z"/>
<path d="M4648 2544 c-30 -16 -32 -22 -20 -42 6 -9 13 -7 29 10 43 48 40 59
-9 32z"/>
<path d="M4748 2553 c-17 -3 -40 -20 -60 -45 l-32 -41 34 -30 c125 -106 154
-127 161 -120 4 4 11 61 15 126 l7 117 -49 -1 c-27 -1 -61 -4 -76 -6z"/>
<path d="M4936 2538 c-3 -13 -8 -77 -11 -143 l-6 -121 60 -57 c33 -31 62 -57
66 -57 3 0 21 7 40 14 l35 15 0 127 0 126 -42 52 c-54 65 -56 66 -100 66 -31
0 -38 -4 -42 -22z"/>
<path d="M1440 2542 c0 -14 54 -60 84 -72 28 -10 29 -10 22 22 -3 18 -14 39
-23 46 -19 13 -83 17 -83 4z"/>
<path d="M2809 2533 c27 -47 31 -49 31 -15 0 26 -4 32 -20 32 -17 0 -19 -3
-11 -17z"/>
<path d="M2338 2533 c-16 -2 -28 -7 -28 -9 0 -8 54 -74 61 -74 5 0 29 68 29
84 0 6 -15 6 -62 -1z"/>
<path d="M2925 2504 c3 -20 11 -47 16 -61 l9 -25 38 27 c94 70 94 95 1 95
l-71 0 7 -36z"/>
<path d="M3871 2451 c32 -101 55 -209 65 -304 l7 -69 39 39 c42 42 57 86 58
163 0 67 -25 162 -48 180 -30 23 -83 52 -118 65 l-31 12 28 -86z"/>
<path d="M3956 2531 c-3 -5 1 -11 9 -15 9 -3 15 0 15 9 0 16 -16 20 -24 6z"/>
<path d="M426 2520 c-15 -5 -36 -16 -47 -26 -18 -16 -18 -17 2 -56 17 -33 24
-38 42 -32 37 11 62 27 110 70 l47 41 -47 7 c-55 7 -70 7 -107 -4z"/>
<path d="M1975 2520 c-3 -5 -1 -10 4 -10 6 0 11 5 11 10 0 6 -2 10 -4 10 -3 0
-8 -4 -11 -10z"/>
<path d="M3147 2498 c-9 -18 -19 -46 -23 -63 -4 -16 -25 -65 -46 -109 -22 -43
-38 -79 -36 -81 2 -2 38 -19 82 -38 l78 -35 64 64 c72 71 70 59 33 187 -19 64
-23 70 -62 87 -58 27 -72 25 -90 -12z"/>
<path d="M4436 2507 c-24 -35 -17 -54 11 -30 15 13 19 24 14 38 -7 18 -9 18
-25 -8z"/>
<path d="M1860 2505 c-17 -10 -20 -14 -9 -15 9 0 22 7 29 15 15 18 12 18 -20
0z"/>
<path d="M2225 2508 c-22 -6 -43 -16 -47 -22 -14 -20 -8 -65 14 -111 19 -40
20 -47 8 -55 -11 -7 -1 -10 31 -10 91 0 104 6 122 63 l17 51 -39 46 c-43 50
-49 53 -106 38z"/>
<path d="M268 2460 c-26 -16 -63 -38 -83 -49 l-35 -19 35 -21 c20 -11 42 -21
50 -21 21 0 145 40 145 47 0 12 -51 93 -58 93 -4 0 -28 -14 -54 -30z"/>
<path d="M4550 2471 c0 -10 30 -24 37 -17 3 2 -5 9 -16 16 -12 6 -21 7 -21 1z"/>
<path d="M1390 2451 c-15 -29 -13 -33 17 -29 33 4 41 23 14 37 -16 9 -22 8
-31 -8z"/>
<path d="M2103 2464 c-9 -4 -9 -11 0 -31 10 -22 12 -23 18 -6 15 38 10 48 -18
37z"/>
<path d="M3347 2430 c16 -39 33 -45 33 -11 0 10 -11 26 -24 34 l-24 16 15 -39z"/>
<path d="M2876 2445 c-3 -10 -2 -23 4 -29 15 -15 22 -2 12 24 -8 21 -9 22 -16
5z"/>
<path d="M1955 2439 c-69 -7 -71 -9 -123 -64 -45 -49 -99 -132 -90 -139 2 -2
38 -12 81 -24 l78 -21 102 46 c56 25 104 47 106 50 6 5 -61 142 -74 152 -5 4
-41 4 -80 0z"/>
<path d="M3028 2425 c-16 -13 -35 -28 -45 -33 -14 -9 -15 -15 -3 -56 7 -26 15
-44 18 -41 8 7 63 147 60 151 -2 1 -15 -8 -30 -21z"/>
<path d="M4074 2432 c21 -64 32 -125 30 -154 l-3 -33 7 30 c8 29 8 29 16 7 4
-13 12 -20 19 -16 9 5 9 4 0 -6 -13 -14 -6 -38 52 -174 35 -80 40 -87 64 -84
19 2 27 11 33 33 44 179 58 236 58 240 0 2 -27 20 -60 41 -33 20 -60 40 -60
44 0 7 -83 56 -133 77 -25 11 -28 11 -23 -5z"/>
<path d="M980 2418 c0 -7 12 -26 26 -43 l25 -30 -5 34 c-3 18 -6 37 -6 42 0 5
-9 9 -20 9 -11 0 -20 -6 -20 -12z"/>
<path d="M1679 2423 l-27 -4 14 -47 c8 -26 16 -53 19 -61 4 -9 21 7 49 45 54
72 46 82 -55 67z"/>
<path d="M4483 2407 c-10 -13 -29 -47 -42 -75 l-24 -51 68 -73 c38 -40 72 -74
77 -76 12 -5 28 45 28 88 0 47 -59 210 -76 210 -7 0 -21 -10 -31 -23z"/>
<path d="M4560 2426 c0 -3 5 -17 11 -33 10 -26 12 -27 19 -8 14 33 11 45 -10
45 -11 0 -20 -2 -20 -4z"/>
<path d="M656 2394 c-49 -13 -95 -29 -102 -35 -7 -6 -17 -8 -22 -5 -5 3 -33
-2 -62 -12 l-53 -18 29 -25 c16 -13 41 -44 56 -69 14 -25 42 -63 61 -85 l34
-39 154 88 c85 48 158 92 163 96 4 5 2 18 -7 30 -17 25 -130 100 -149 99 -7 0
-53 -11 -102 -25z"/>
<path d="M3430 2406 c0 -9 5 -16 10 -16 6 0 10 4 10 9 0 6 -4 13 -10 16 -5 3
-10 -1 -10 -9z"/>
<path d="M4327 2404 l-49 -15 48 -37 c26 -20 49 -36 52 -35 4 1 42 92 42 101
0 6 -50 -1 -93 -14z"/>
<path d="M4610 2401 c-13 -25 -13 -80 1 -119 6 -18 16 -67 23 -109 11 -69 15
-78 32 -74 10 1 48 6 83 10 l65 6 18 70 18 70 -57 52 c-32 29 -61 53 -65 53
-4 0 -24 15 -45 33 -21 17 -31 23 -23 12 15 -19 15 -19 -12 -2 -26 16 -28 16
-38 -2z"/>
<path d="M1550 2401 c0 -6 9 -15 21 -21 18 -10 20 -9 17 7 -3 19 -38 32 -38
14z"/>
<path d="M930 2395 c0 -5 10 -21 21 -35 13 -17 17 -18 10 -5 -17 33 -31 51
-31 40z"/>
<path d="M2382 2363 c-6 -20 -10 -38 -9 -39 1 -1 26 1 55 3 l52 6 -37 33 c-21
18 -41 33 -44 34 -3 0 -11 -17 -17 -37z"/>
<path d="M2787 2362 c-34 -36 -34 -42 3 -42 28 0 30 3 30 35 0 19 -1 35 -3 35
-2 0 -15 -13 -30 -28z"/>
<path d="M2157 2374 c-3 -3 -3 -12 0 -20 4 -11 9 -12 19 -3 8 6 11 15 8 20 -6
10 -18 12 -27 3z"/>
<path d="M1354 2334 c-29 -32 -35 -34 -92 -34 -34 0 -73 -5 -87 -12 -30 -14
-33 -3 51 -206 35 -85 64 -158 64 -163 0 -20 30 -20 116 1 l89 21 73 123 c39
68 72 130 72 138 0 9 -7 21 -16 29 -10 8 -13 21 -9 36 12 51 -88 104 -193 102
-29 0 -44 -8 -68 -35z"/>
<path d="M1120 2347 c0 -7 6 -20 13 -29 11 -15 17 -14 62 13 l50 29 -62 0
c-45 0 -63 -4 -63 -13z"/>
<path d="M2877 2343 c-15 -15 -5 -44 18 -55 33 -15 38 -8 24 30 -10 30 -27 40
-42 25z"/>
<path d="M346 2319 c-22 -5 -42 -11 -44 -14 -6 -6 119 -85 134 -85 19 0 6 59
-19 88 -11 12 -23 22 -26 21 -3 -1 -24 -5 -45 -10z"/>
<path d="M33 2300 c-25 -15 -33 -27 -33 -49 0 -43 18 -53 76 -42 27 5 56 12
64 15 8 3 28 10 45 16 l29 11 -59 34 c-70 40 -79 41 -122 15z"/>
<path d="M2398 2283 l-48 -4 0 -42 c0 -33 8 -51 34 -82 l34 -40 43 21 c24 12
80 48 124 80 79 59 80 59 50 65 -32 7 -159 8 -237 2z"/>
<path d="M2298 2272 c-30 -4 -35 -11 -16 -30 16 -16 2 -15 -25 2 -12 8 -30 11
-39 7 -16 -6 -15 -13 10 -86 16 -44 33 -89 40 -100 10 -18 11 -17 12 13 0 28
3 32 26 32 26 0 26 2 20 43 -4 23 -11 46 -17 52 -12 12 -12 28 1 20 11 -7 23
17 18 37 -2 8 -14 12 -30 10z"/>
<path d="M2660 2218 c-36 -27 -95 -68 -132 -89 -38 -22 -68 -44 -68 -48 0 -12
101 -87 144 -108 34 -16 36 -16 73 10 21 15 60 47 87 71 42 39 48 49 42 73 -9
37 -60 136 -72 139 -5 2 -38 -20 -74 -48z"/>
<path d="M2802 2218 c42 -70 41 -70 35 -14 -5 49 -17 66 -49 66 -15 0 -13 -8
14 -52z"/>
<path d="M865 2207 c-44 -28 -114 -70 -155 -94 l-74 -42 87 -41 c48 -22 91
-40 95 -40 17 1 151 201 152 226 0 47 -22 45 -105 -9z"/>
<path d="M3297 2210 c-20 -27 -37 -53 -37 -57 0 -9 100 -47 106 -40 4 4 -24
138 -30 144 -1 1 -19 -20 -39 -47z"/>
<path d="M2895 2193 c11 -74 19 -81 44 -40 26 43 26 52 -1 71 -41 29 -51 21
-43 -31z"/>
<path d="M4387 2222 c-3 -9 -15 -44 -27 -77 -11 -33 -25 -76 -29 -97 l-8 -36
36 13 c82 31 156 64 158 72 4 10 -90 123 -111 135 -9 5 -16 2 -19 -10z m-40
-184 c-3 -8 -6 -5 -6 6 -1 11 2 17 5 13 3 -3 4 -12 1 -19z"/>
<path d="M1060 2227 c0 -14 101 -209 106 -204 7 6 -67 164 -89 192 -9 11 -17
17 -17 12z"/>
<path d="M2140 2202 c0 -24 36 -88 71 -126 7 -8 -20 101 -36 142 -9 25 -35 13
-35 -16z"/>
<path d="M4091 2193 c-43 -165 -42 -148 -14 -188 24 -36 26 -37 70 -30 54 8
73 14 73 25 0 4 -18 45 -39 91 -22 46 -43 96 -46 112 -10 39 -33 34 -44 -10z"/>
<path d="M3065 2120 c30 -93 45 -128 45 -104 0 6 15 36 34 67 l34 56 -66 37
c-37 20 -70 38 -73 40 -4 2 8 -41 26 -96z"/>
<path d="M4894 2170 l-11 -50 46 0 c25 0 56 3 68 6 21 6 19 9 -25 50 -26 24
-52 43 -58 44 -5 0 -15 -22 -20 -50z"/>
<path d="M216 2183 l-49 -24 49 -23 c27 -13 58 -32 69 -43 20 -19 21 -19 47
23 l27 43 -44 25 c-24 15 -45 26 -47 25 -2 -1 -25 -12 -52 -26z"/>
<path d="M1758 2169 c17 -44 19 -45 67 -22 38 18 46 33 16 33 -10 0 -37 6 -59
14 l-40 14 16 -39z"/>
<path d="M470 2196 c0 -2 8 -10 18 -17 15 -13 16 -12 3 4 -13 16 -21 21 -21
13z"/>
<path d="M1931 2108 c-52 -31 -99 -59 -105 -62 -11 -4 52 -136 64 -136 20 0
77 25 88 38 6 9 12 30 13 46 0 17 8 63 19 101 10 39 17 70 16 71 0 0 -43 -26
-95 -58z"/>
<path d="M35 2150 c3 -5 13 -10 21 -10 8 0 14 5 14 10 0 6 -9 10 -21 10 -11 0
-17 -4 -14 -10z"/>
<path d="M968 2113 c-59 -82 -100 -144 -96 -147 11 -9 288 -92 288 -87 0 3
-12 24 -27 46 -15 22 -50 84 -79 138 l-51 99 -35 -49z"/>
<path d="M1671 2110 c-6 -18 -11 -41 -11 -51 0 -16 3 -17 25 -7 28 12 31 31
11 67 l-13 24 -12 -33z"/>
<path d="M78 2119 c-11 -6 -15 -16 -11 -27 10 -26 104 -192 113 -197 11 -7 42
32 83 102 l36 62 -29 21 c-64 46 -151 64 -192 39z"/>
<path d="M367 2081 c-27 -48 -27 -49 -8 -72 18 -23 19 -23 58 -5 22 10 53 26
68 36 l27 18 -47 36 c-27 20 -53 36 -60 36 -6 0 -24 -22 -38 -49z"/>
<path d="M2965 2090 l-29 -42 39 -74 c21 -41 42 -74 45 -74 4 0 15 9 25 20 15
17 16 25 7 62 -6 24 -22 67 -35 97 l-23 53 -29 -42z"/>
<path d="M3420 2125 c0 -5 5 -17 10 -25 5 -8 10 -10 10 -5 0 6 -5 17 -10 25
-5 8 -10 11 -10 5z"/>
<path d="M2065 2098 c-3 -13 -9 -47 -14 -75 -7 -48 -6 -53 10 -53 17 0 19 9
19 75 0 76 -5 94 -15 53z"/>
<path d="M3220 2092 c0 -5 -22 -45 -48 -89 l-49 -81 29 -62 c15 -35 26 -65 23
-68 -9 -9 -33 31 -46 78 l-13 44 -13 -31 c-11 -28 -10 -36 14 -80 31 -57 94
-127 103 -113 3 5 25 -15 48 -44 42 -52 86 -85 98 -73 9 9 23 211 23 344 l1
112 -71 35 c-71 36 -99 44 -99 28z"/>
<path d="M2150 2050 c0 -40 11 -49 39 -31 11 7 9 15 -10 40 -12 17 -24 31 -26
31 -2 0 -3 -18 -3 -40z"/>
<path d="M3972 2062 c-28 -24 -32 -33 -27 -55 4 -15 11 -27 16 -27 5 0 9 1 9
3 0 1 9 26 20 55 11 28 19 52 17 52 -1 0 -17 -13 -35 -28z"/>
<path d="M1586 2027 c-20 -31 -36 -59 -36 -62 0 -3 13 2 29 11 20 12 33 30 40
58 5 22 8 42 6 44 -2 2 -20 -21 -39 -51z"/>
<path d="M2408 2057 c-25 -10 -28 -16 -28 -60 0 -26 5 -69 12 -95 11 -46 54
-122 68 -122 28 0 173 127 163 142 -3 6 -29 25 -58 43 -29 19 -70 50 -90 70
-21 19 -38 35 -39 34 -1 -1 -13 -6 -28 -12z"/>
<path d="M1 1941 l-1 -123 25 6 c49 12 75 26 74 38 0 7 -22 56 -49 108 l-49
95 0 -124z"/>
<path d="M646 2039 c52 -70 144 -179 151 -179 27 1 -4 46 -81 120 -49 47 -81
73 -70 59z"/>
<path d="M4892 2043 c-22 -4 -44 -42 -67 -112 l-7 -23 30 17 c16 10 62 42 103
71 l74 54 -55 -1 c-30 -1 -65 -4 -78 -6z"/>
<path d="M486 1998 l-79 -40 77 -76 77 -77 54 59 54 60 -29 35 c-15 20 -39 46
-52 58 l-23 21 -79 -40z"/>
<path d="M4475 2025 c-23 -10 -25 -13 -10 -14 11 0 34 6 50 14 23 10 25 13 10
14 -11 0 -33 -6 -50 -14z"/>
<path d="M2303 2017 l-22 -12 25 -43 c14 -23 26 -42 27 -42 3 0 -2 75 -6 97
-2 9 -7 9 -24 0z"/>
<path d="M3476 2008 c45 -54 94 -84 94 -59 0 15 -79 81 -97 81 -14 0 -14 -3 3
-22z"/>
<path d="M4735 2023 c-46 -10 -47 -12 -24 -43 13 -16 26 -30 29 -30 6 0 40 65
40 75 0 6 -15 5 -45 -2z"/>
<path d="M4976 1942 c-65 -42 -119 -81 -118 -87 0 -5 22 -41 48 -78 l49 -69
44 6 c24 3 61 11 83 16 l39 11 -3 136 c-2 80 -7 137 -13 139 -5 1 -63 -32
-129 -74z"/>
<path d="M1676 1962 c-69 -46 -96 -82 -110 -144 l-6 -27 97 34 c169 59 175 62
162 88 -26 47 -60 97 -67 96 -4 0 -38 -21 -76 -47z"/>
<path d="M2803 1940 c-40 -37 -73 -70 -73 -73 0 -2 36 -32 80 -67 l80 -62 20
24 c11 13 29 37 40 55 l21 32 -26 40 c-14 22 -32 59 -41 81 -9 22 -19 40 -23
40 -3 -1 -39 -32 -78 -70z"/>
<path d="M3609 1976 c22 -23 39 -32 52 -29 21 6 26 23 6 23 -7 0 -30 9 -52 20
l-39 20 33 -34z"/>
<path d="M4623 2002 c-13 -2 -23 -4 -23 -5 1 -1 11 -33 24 -71 l23 -69 33 30
34 31 -29 41 c-33 48 -33 48 -62 43z"/>
<path d="M3421 1925 c0 -44 3 -141 6 -215 l5 -135 82 7 c44 3 91 7 103 7 23 1
91 55 142 114 l31 35 -91 73 c-129 105 -128 104 -141 91 -14 -14 -62 -16 -54
-3 3 5 -14 31 -39 58 l-45 48 1 -80z m49 -45 c-20 -13 -33 -13 -25 0 3 6 14
10 23 10 15 0 15 -2 2 -10z"/>
<path d="M4027 1985 c-8 -20 -4 -29 11 -24 5 2 6 13 2 23 -6 19 -7 19 -13 1z"/>
<path d="M310 1975 c-17 -20 -11 -25 18 -14 13 5 20 13 17 19 -9 14 -21 12
-35 -5z"/>
<path d="M2184 1978 l-32 -10 -8 -137 c-5 -75 -9 -142 -9 -150 0 -8 15 -23 32
-34 l33 -19 86 47 c47 26 87 52 90 59 13 33 -118 258 -149 255 -7 -1 -26 -6
-43 -11z"/>
<path d="M4450 1951 l-95 -28 2 -76 c1 -51 8 -91 22 -122 23 -52 19 -52 109 7
102 68 122 88 122 121 0 48 -31 127 -49 126 -9 0 -59 -13 -111 -28z"/>
<path d="M4161 1949 c-32 -10 -33 -11 -15 -30 22 -25 23 -24 64 11 34 28 34
29 10 29 -14 -1 -40 -5 -59 -10z"/>
<path d="M3701 1934 c-17 -7 -31 -15 -31 -18 0 -10 151 -126 164 -126 23 0 39
46 32 94 -7 45 -7 45 -54 51 -26 3 -54 7 -63 9 -9 2 -30 -3 -48 -10z"/>
<path d="M326 1920 c-41 -21 -79 -50 -72 -57 2 -2 41 -8 87 -13 46 -4 98 -11
114 -15 29 -7 28 -5 -25 49 -30 31 -57 56 -60 56 -3 -1 -23 -10 -44 -20z"/>
<path d="M807 1920 c6 -23 19 -26 26 -6 3 8 -1 17 -9 20 -22 9 -23 8 -17 -14z"/>
<path d="M2063 1927 c-22 -9 -23 -16 -23 -107 0 -89 8 -120 31 -120 7 0 24
228 18 234 -2 2 -14 -1 -26 -7z"/>
<path d="M4273 1889 c-29 -17 -53 -34 -53 -38 0 -7 71 -77 100 -98 13 -10 15
-3 12 50 -1 34 -4 74 -5 89 l-2 27 -52 -30z"/>
<path d="M857 1904 c-13 -13 9 -36 116 -126 176 -147 190 -152 247 -93 28 29
31 37 20 50 -7 8 -18 15 -24 15 -6 0 -83 36 -171 80 -156 78 -176 86 -188 74z"/>
<path d="M3985 1890 c-3 -11 -11 -20 -16 -20 -7 0 -8 -13 -4 -32 14 -72 11
-71 76 -30 32 20 59 40 59 44 0 8 -85 58 -99 58 -5 0 -13 -9 -16 -20z"/>
<path d="M1937 1887 l-37 -12 39 -59 39 -59 4 72 c1 39 1 71 -2 70 -3 0 -22
-6 -43 -12z"/>
<path d="M674 1843 c-21 -26 -42 -53 -46 -59 -6 -8 10 -26 43 -53 l52 -41 33
49 c19 28 34 56 34 64 0 7 -17 30 -39 51 l-38 38 -39 -49z"/>
<path d="M1180 1857 c0 -7 12 -24 26 -38 l27 -24 -17 32 c-18 36 -36 51 -36
30z"/>
<path d="M1383 1837 c-24 -5 -43 -14 -43 -19 0 -12 28 -78 33 -78 4 0 67 99
67 106 0 5 -3 4 -57 -9z"/>
<path d="M1818 1843 c-10 -2 -18 -8 -18 -12 0 -8 92 -52 98 -47 1 2 -5 17 -15
35 -17 30 -28 34 -65 24z"/>
<path d="M2594 1776 l-100 -72 67 -89 c37 -50 74 -91 82 -93 8 -2 46 28 84 66
56 56 72 79 82 117 7 27 8 51 4 55 -23 19 -99 78 -108 82 -5 3 -55 -27 -111
-66z"/>
<path d="M4761 1816 c-46 -25 -74 -156 -33 -156 21 0 174 29 179 34 7 7 -94
131 -108 133 -8 2 -25 -3 -38 -11z"/>
<path d="M1477 1800 c-3 -11 -1 -20 4 -20 5 0 9 9 9 20 0 11 -2 20 -4 20 -2 0
-6 -9 -9 -20z"/>
<path d="M1650 1765 l-85 -33 -7 -88 -8 -88 52 -53 c59 -60 67 -61 179 -38 72
15 209 54 209 60 0 18 -54 183 -63 192 -12 12 -173 84 -185 82 -4 0 -45 -15
-92 -34z"/>
<path d="M4073 1752 c-40 -26 -71 -51 -70 -57 2 -5 61 -33 132 -62 l129 -53
37 26 c21 14 40 31 42 39 9 21 -150 155 -184 155 -8 0 -47 -22 -86 -48z"/>
<path d="M150 1771 c0 -27 46 -108 92 -164 49 -58 61 -55 21 5 -17 24 -47 73
-67 111 -21 37 -40 67 -42 67 -2 0 -4 -8 -4 -19z"/>
<path d="M240 1782 c0 -27 113 -185 146 -205 9 -5 35 21 83 85 46 62 66 95 58
99 -33 19 -287 37 -287 21z"/>
<path d="M3897 1776 c-3 -8 1 -20 9 -26 11 -10 14 -9 14 8 0 25 -16 37 -23 18z"/>
<path d="M2992 1740 l-33 -38 43 -26 c23 -14 44 -23 46 -21 7 6 -9 125 -16
124 -4 0 -22 -18 -40 -39z"/>
<path d="M796 1722 c-20 -27 -36 -52 -36 -54 0 -3 35 -32 78 -65 57 -44 89
-62 115 -64 20 -2 39 0 43 4 9 9 -93 161 -134 200 l-29 28 -37 -49z"/>
<path d="M1001 1678 c35 -54 69 -97 74 -97 6 0 17 5 25 12 13 10 2 25 -74 97
l-89 85 64 -97z"/>
<path d="M3104 1755 c2 -11 8 -48 11 -82 6 -53 12 -67 36 -87 19 -17 38 -23
56 -21 16 2 37 4 48 4 15 1 5 16 -47 69 -36 37 -76 83 -88 102 -12 19 -19 26
-16 15z"/>
<path d="M37 1737 c-20 -11 -37 -25 -37 -30 0 -9 40 -46 50 -47 6 0 32 91 28
96 -2 1 -20 -7 -41 -19z"/>
<path d="M111 1709 c-7 -24 -15 -52 -17 -62 -4 -13 9 -24 58 -47 86 -41 95
-38 43 14 -29 29 -49 60 -58 91 l-13 47 -13 -43z"/>
<path d="M574 1713 c-11 -16 -37 -51 -57 -80 l-38 -51 58 -17 c32 -9 65 -18
73 -21 11 -3 25 15 47 59 l30 62 -42 38 c-24 20 -45 37 -47 37 -2 0 -13 -12
-24 -27z"/>
<path d="M4578 1711 c-48 -31 -79 -63 -40 -42 30 16 33 14 26 -16 -6 -22 -4
-25 10 -20 10 4 21 7 26 7 6 0 40 81 40 97 0 9 -21 0 -62 -26z"/>
<path d="M2836 1713 c-9 -22 -4 -24 17 -8 14 10 15 14 3 18 -8 3 -17 -1 -20
-10z"/>
<path d="M1492 1680 c-9 -19 -11 -41 -7 -58 8 -26 8 -26 17 13 13 58 7 84 -10
45z"/>
<path d="M4660 1687 c-14 -29 -7 -48 11 -30 6 6 9 21 7 34 l-4 24 -14 -28z"/>
<path d="M3811 1675 c-28 -30 -22 -32 19 -7 16 10 27 22 23 25 -10 11 -17 8
-42 -18z"/>
<path d="M2450 1659 c0 -13 3 -40 6 -59 5 -31 11 -37 46 -48 22 -7 42 -11 44
-9 3 3 -74 119 -90 135 -3 3 -6 -6 -6 -19z"/>
<path d="M2890 1608 c-38 -68 -38 -78 3 -78 38 0 157 17 163 23 11 11 -12 36
-63 70 -31 20 -60 37 -64 37 -5 0 -22 -24 -39 -52z"/>
<path d="M5043 1647 c-29 -5 -53 -14 -53 -18 0 -5 17 -34 38 -66 35 -55 39
-58 65 -49 26 9 27 13 27 78 0 48 -4 68 -12 67 -7 -1 -37 -6 -65 -12z"/>
<path d="M2 1628 c2 -15 11 -24 26 -26 30 -4 28 12 -4 33 -25 16 -26 16 -22
-7z"/>
<path d="M2037 1610 c18 -44 33 -52 33 -17 0 12 -11 30 -24 39 l-24 18 15 -40z"/>
<path d="M2327 1620 c-45 -25 -47 -28 -25 -33 12 -4 40 -7 61 -7 38 0 46 14
31 54 -8 20 -9 20 -67 -14z"/>
<path d="M692 1608 c-30 -50 -35 -75 -17 -81 39 -15 112 -18 149 -5 l39 14
-69 52 c-38 29 -72 52 -76 52 -3 0 -15 -15 -26 -32z"/>
<path d="M1295 1624 c-11 -9 -53 -34 -94 -56 l-73 -41 23 -19 c39 -31 129 -69
180 -75 l48 -6 -22 69 c-12 38 -31 77 -42 86 -16 14 -17 19 -6 27 7 5 12 13
10 19 -3 7 -12 5 -24 -4z"/>
<path d="M4430 1625 c-14 -16 -3 -20 19 -6 8 5 9 11 3 15 -5 3 -15 -1 -22 -9z"/>
<path d="M3820 1598 l-45 -33 59 -3 c32 -2 61 -1 63 2 7 7 -17 66 -26 66 -4 0
-27 -15 -51 -32z"/>
<path d="M4835 1604 c-33 -7 -78 -19 -101 -25 l-41 -11 -6 -101 c-3 -56 -4
-103 -2 -105 1 -2 45 15 96 37 52 22 122 48 156 58 35 10 63 23 63 29 0 6 -14
39 -32 73 -35 68 -35 68 -133 45z"/>
<path d="M2110 1600 c0 -5 7 -10 16 -10 8 0 12 5 9 10 -3 6 -10 10 -16 10 -5
0 -9 -4 -9 -10z"/>
<path d="M2750 1567 c-62 -49 -88 -77 -72 -77 6 0 34 5 62 11 53 11 58 17 74
82 3 15 3 27 -1 27 -5 0 -33 -19 -63 -43z"/>
<path d="M4030 1580 c0 -12 32 -182 36 -188 1 -2 36 32 78 74 41 43 74 78 73
79 -1 0 -31 9 -67 19 -99 27 -120 30 -120 16z"/>
<path d="M440 1550 c0 -5 7 -10 16 -10 8 0 12 5 9 10 -3 6 -10 10 -16 10 -5 0
-9 -4 -9 -10z"/>
<path d="M4517 1553 c-28 -4 -28 -5 -11 -24 22 -25 28 -24 48 6 17 26 18 26
-37 18z"/>
<path d="M4588 1516 l-37 -43 49 -48 c27 -27 52 -47 55 -44 2 3 8 44 11 92 l7
87 -24 0 c-16 -1 -37 -16 -61 -44z"/>
<path d="M1464 1526 c-3 -14 -3 -42 0 -61 7 -35 7 -35 62 -35 l56 0 -41 49
c-61 73 -69 78 -77 47z"/>
<path d="M2168 1533 c-37 -42 -68 -119 -68 -166 0 -46 1 -48 23 -41 12 4 73
23 136 43 l114 36 -77 73 c-79 74 -102 84 -128 55z"/>
<path d="M2318 1513 c16 -21 42 -49 56 -62 31 -29 39 -17 34 50 l-3 44 -59 3
-59 3 31 -38z"/>
<path d="M4360 1530 c0 -5 4 -10 9 -10 6 0 13 5 16 10 3 6 -1 10 -9 10 -9 0
-16 -4 -16 -10z"/>
<path d="M2460 1486 l0 -45 53 16 c28 8 59 19 67 23 13 8 13 9 0 13 -8 3 -35
12 -60 21 -25 9 -49 16 -53 16 -4 0 -7 -20 -7 -44z"/>
<path d="M0 1425 c0 -47 2 -85 5 -85 2 0 12 14 20 31 12 22 13 34 5 44 -6 8
-8 29 -4 54 5 34 4 41 -10 41 -13 0 -16 -13 -16 -85z"/>
<path d="M57 1493 c-9 -15 -19 -78 -12 -71 4 3 10 23 15 42 8 34 6 45 -3 29z"/>
<path d="M87 1493 c-4 -3 -7 -21 -7 -39 l0 -33 93 6 c126 7 143 24 52 52 -67
21 -126 27 -138 14z"/>
<path d="M3420 1477 c0 -35 11 -40 37 -15 31 29 29 38 -7 38 -25 0 -30 -4 -30
-23z"/>
<path d="M3487 1446 c-57 -66 -65 -115 -21 -134 20 -10 29 -9 46 2 18 13 23
13 39 -3 29 -26 147 -82 227 -107 l73 -23 10 27 c23 59 39 151 39 220 l0 72
-183 0 -183 0 -47 -54z"/>
<path d="M4283 1478 c-46 -32 -41 -43 7 -16 22 13 40 26 40 31 0 12 -14 8 -47
-15z"/>
<path d="M4407 1493 c-4 -3 2 -13 14 -21 23 -16 34 -10 26 13 -7 15 -28 20
-40 8z"/>
<path d="M5087 1489 c-24 -14 -11 -32 14 -19 10 6 19 15 19 20 0 13 -10 12
-33 -1z"/>
<path d="M2906 1483 l-69 -4 5 -67 c4 -49 14 -84 38 -132 64 -127 149 -250
172 -250 4 0 8 23 8 50 l0 50 -42 -6 c-48 -8 -45 5 5 22 l32 11 3 166 2 167
-42 -2 c-24 -1 -74 -4 -112 -5z"/>
<path d="M3117 1303 c-3 -104 -8 -204 -12 -223 l-7 -35 52 55 c101 108 190
213 190 225 0 4 -35 43 -77 86 -64 67 -82 79 -109 79 l-32 0 -5 -187z"/>
<path d="M3290 1474 c27 -36 74 -84 82 -84 10 0 10 51 0 66 -4 6 -18 15 -32
18 -70 21 -66 21 -50 0z"/>
<path d="M435 1460 c3 -5 17 -10 31 -10 33 0 61 -15 102 -54 l33 -31 -3 34
c-3 34 -4 34 -78 52 -89 22 -93 22 -85 9z"/>
<path d="M1129 1452 c16 -30 34 -41 81 -48 55 -8 52 -5 -28 35 -52 26 -61 29
-53 13z"/>
<path d="M2738 1453 c-16 -2 -28 -8 -28 -12 0 -5 17 -28 38 -51 l38 -43 0 57
c0 33 -5 55 -11 55 -5 -1 -22 -4 -37 -6z"/>
<path d="M4335 1450 c-9 -14 -10 -13 43 -39 52 -26 63 -21 35 17 -21 28 -66
41 -78 22z"/>
<path d="M1028 1443 c7 -3 16 -2 19 1 4 3 -2 6 -13 5 -11 0 -14 -3 -6 -6z"/>
<path d="M1960 1429 c-39 -15 -126 -38 -209 -55 -21 -4 -22 -7 -10 -19 17 -16
209 -65 257 -65 l35 0 -5 71 c-3 39 -9 74 -14 78 -5 4 -29 0 -54 -10z"/>
<path d="M2543 1425 c-28 -15 -57 -33 -65 -42 -11 -14 -11 -16 1 -9 11 7 12 1
7 -31 -7 -37 -5 -42 38 -81 52 -48 117 -83 207 -110 91 -29 112 -32 128 -22
12 7 3 23 -41 82 -59 78 -205 238 -217 238 -4 0 -30 -11 -58 -25z"/>
<path d="M4909 1417 c-93 -32 -181 -76 -194 -97 -11 -17 21 -22 66 -10 75 19
229 101 229 122 0 10 -1 18 -2 18 -2 0 -46 -15 -99 -33z"/>
<path d="M634 1403 c-3 -16 -7 -34 -9 -40 -5 -14 55 -63 76 -63 18 0 133 90
125 97 -6 6 -139 32 -168 32 -11 1 -20 -9 -24 -26z"/>
<path d="M5101 1423 c0 -5 4 -17 9 -28 8 -18 9 -17 9 8 1 15 -3 27 -9 27 -5 0
-10 -3 -9 -7z"/>
<path d="M4265 1402 c-34 -17 -141 -100 -168 -130 -18 -19 -17 -22 17 -88 19
-38 39 -75 45 -83 7 -12 27 -4 104 38 94 52 95 54 116 111 12 31 21 70 21 86
0 26 -7 33 -53 56 -50 24 -55 25 -82 10z"/>
<path d="M4496 1394 c-8 -31 -10 -29 32 -37 40 -8 40 1 3 37 l-28 27 -7 -27z"/>
<path d="M532 1355 c32 -33 60 -57 63 -54 3 3 -23 30 -57 59 l-63 53 57 -58z"/>
<path d="M5050 1383 c1 -47 45 -228 55 -226 6 2 11 33 13 70 3 56 -1 76 -25
125 -30 63 -43 73 -43 31z"/>
<path d="M110 1377 c-73 -19 -108 -100 -98 -222 l3 -40 38 63 c51 82 63 94
100 90 27 -3 33 2 64 60 l35 62 -49 -1 c-26 0 -68 -6 -93 -12z"/>
<path d="M342 1363 c-35 -51 -34 -53 18 -31 54 22 60 32 31 48 -27 14 -27 14
-49 -17z"/>
<path d="M950 1364 c0 -9 13 -45 29 -78 49 -102 45 -117 -4 -19 l-47 93 -57
-45 c-72 -57 -119 -98 -105 -91 15 7 37 -20 54 -64 16 -40 146 -180 168 -180
7 0 25 9 39 20 14 11 43 24 63 30 24 7 47 23 65 45 l27 36 -32 97 c-43 131
-48 138 -117 152 -32 7 -63 15 -70 17 -8 3 -13 -2 -13 -13z"/>
<path d="M4950 1350 c-30 -16 -88 -41 -128 -56 l-73 -27 92 -93 92 -92 36 13
c82 29 93 37 88 64 -13 65 -46 214 -49 216 -2 2 -28 -10 -58 -25z"/>
<path d="M2275 1329 c-44 -15 -99 -33 -122 -39 -35 -8 -43 -15 -43 -33 0 -43
21 -55 143 -82 169 -36 157 -40 157 58 0 105 -6 127 -34 126 -11 -1 -57 -14
-101 -30z"/>
<path d="M1490 1342 c0 -22 43 -42 134 -61 54 -12 100 -20 102 -18 10 10 -51
52 -98 68 -55 19 -138 25 -138 11z"/>
<path d="M1165 1302 c12 -54 36 -132 39 -132 7 0 88 112 84 115 -2 3 -32 13
-67 24 l-63 19 7 -26z"/>
<path d="M4476 1313 c-3 -10 -12 -48 -20 -86 -18 -79 -53 -152 -107 -224 -21
-29 -39 -56 -39 -61 0 -5 9 -17 20 -27 11 -10 32 -37 47 -61 26 -40 29 -42 87
-47 34 -2 62 -4 63 -3 1 1 9 34 17 75 9 44 32 103 56 147 22 40 40 82 40 94 0
26 -35 98 -64 128 -11 13 -20 25 -18 28 7 12 -2 22 -33 37 -44 21 -43 21 -49
0z"/>
<path d="M450 1313 c-8 -2 -21 -7 -29 -9 -10 -3 -6 -14 18 -38 37 -38 71 -120
71 -171 0 -22 5 -35 13 -35 6 1 39 25 71 54 l59 53 -88 76 c-48 43 -90 77 -94
76 -3 0 -13 -3 -21 -6z"/>
<path d="M1770 1303 c0 -18 45 -51 78 -58 34 -7 92 2 92 14 0 4 -33 15 -72 25
-40 10 -79 20 -85 23 -7 2 -13 1 -13 -4z"/>
<path d="M265 1233 c-50 -103 -44 -244 14 -314 l28 -33 82 59 c45 32 87 65 93
72 8 10 7 34 -5 93 -22 115 -59 158 -148 174 -35 6 -36 6 -64 -51z"/>
<path d="M669 1246 c14 -14 26 -24 29 -22 7 8 -8 25 -31 37 -21 11 -21 10 2
-15z"/>
<path d="M1286 1204 c-45 -53 -56 -72 -56 -101 l0 -36 63 6 c59 5 65 8 120 60
l59 55 -44 30 c-86 59 -79 59 -142 -14z"/>
<path d="M3459 1251 l-22 -18 82 -13 c45 -7 84 -10 87 -7 6 5 -98 57 -114 57
-6 0 -20 -8 -33 -19z"/>
<path d="M2472 1193 l3 -68 80 -13 c44 -6 103 -11 130 -10 l50 3 -68 32 c-38
18 -98 53 -133 79 l-65 46 3 -69z"/>
<path d="M1990 1231 c0 -5 11 -11 25 -13 17 -4 25 -1 25 8 0 8 -11 14 -25 14
-14 0 -25 -4 -25 -9z"/>
<path d="M3360 1220 c-14 -10 -22 -21 -20 -24 3 -2 16 4 30 14 14 10 22 21 20
24 -3 2 -16 -4 -30 -14z"/>
<path d="M3901 1220 c-1 -8 -4 -26 -7 -40 -5 -22 -4 -23 6 -7 6 10 9 28 7 40
-2 12 -5 15 -6 7z"/>
<path d="M1568 1183 c45 -56 104 -120 96 -103 -13 27 -107 140 -117 140 -5 0
5 -17 21 -37z"/>
<path d="M4044 1185 c-4 -16 1 -36 15 -58 22 -36 59 -73 65 -66 5 5 -61 149
-68 149 -3 0 -8 -11 -12 -25z"/>
<path d="M4390 1180 c-20 -28 -44 -90 -34 -90 2 0 17 27 34 60 33 66 33 77 0
30z"/>
<path d="M4690 1183 c0 -56 135 -227 234 -297 86 -60 83 -60 102 -31 l16 25
-151 146 c-83 80 -162 155 -176 166 l-25 19 0 -28z"/>
<path d="M1638 1172 c23 -32 78 -82 91 -82 7 0 51 55 51 64 0 5 -69 27 -134
42 l-30 7 22 -31z"/>
<path d="M1906 1165 c17 -22 33 -34 41 -30 8 3 33 8 54 11 22 4 38 11 36 17
-4 13 -89 37 -130 37 l-28 0 27 -35z"/>
<path d="M3445 1168 c4 -18 19 -89 34 -158 l27 -125 43 2 c60 3 95 27 184 128
l79 89 -66 33 c-44 22 -86 35 -128 39 -35 3 -81 10 -103 15 -70 15 -77 13 -70
-23z"/>
<path d="M3337 1140 c-37 -28 -67 -55 -67 -60 0 -5 8 -15 18 -22 31 -22 108
-91 92 -83 -8 5 -41 28 -72 53 l-57 44 -56 -48 c-30 -26 -51 -52 -47 -56 25
-25 305 -108 318 -95 5 4 -54 308 -60 315 -2 1 -33 -21 -69 -48z"/>
<path d="M1436 1128 l-35 -43 77 -6 c42 -3 79 -5 81 -3 5 4 -72 94 -80 94 -4
0 -23 -19 -43 -42z"/>
<path d="M61 1113 c-43 -48 -43 -51 -17 -117 12 -29 13 -26 37 67 14 53 24 97
23 97 -1 0 -21 -21 -43 -47z"/>
<path d="M2120 1152 c0 -12 35 -22 75 -21 25 0 27 2 10 8 -38 16 -85 23 -85
13z"/>
<path d="M1782 1109 l-33 -39 28 1 c35 1 92 21 94 33 0 5 -12 17 -28 27 l-28
18 -33 -40z"/>
<path d="M4258 1109 c-43 -21 -78 -43 -78 -47 0 -4 8 -19 17 -32 34 -50 54
-52 81 -7 19 29 64 128 59 127 -1 -1 -37 -19 -79 -41z"/>
<path d="M5112 1110 c0 -19 2 -27 5 -17 2 9 2 25 0 35 -3 9 -5 1 -5 -18z"/>
<path d="M667 1113 c-4 -7 -39 -35 -77 -64 -58 -43 -71 -58 -76 -88 -4 -20
-15 -60 -26 -90 -10 -30 -15 -58 -11 -62 8 -8 259 -79 277 -79 13 0 -1 74 -35
180 -17 52 -34 122 -37 155 -4 34 -11 55 -15 48z"/>
<path d="M707 1073 c3 -27 19 -90 35 -142 15 -52 31 -112 34 -133 4 -21 10
-41 14 -43 5 -3 22 12 38 32 l29 38 -18 75 c-10 41 -25 92 -33 112 -16 38 -79
108 -96 108 -6 0 -7 -20 -3 -47z"/>
<path d="M5010 1083 l-55 -25 54 -49 c30 -27 56 -47 58 -46 12 12 18 98 9 119
l-11 25 -55 -24z"/>
<path d="M4686 1085 c-3 -9 -6 -42 -7 -73 0 -31 -6 -91 -14 -132 -7 -41 -11
-77 -8 -80 9 -10 292 -5 302 5 7 7 -13 28 -60 65 -62 48 -143 137 -191 208
-13 20 -16 21 -22 7z"/>
<path d="M2005 1056 c41 -35 51 -33 41 9 -5 21 -12 25 -44 25 l-37 0 40 -34z"/>
<path d="M2157 1074 c13 -37 75 -126 156 -227 l82 -102 7 155 c3 85 5 158 2
161 -2 4 -36 9 -76 13 -40 4 -97 9 -126 12 -48 6 -52 5 -45 -12z"/>
<path d="M2791 1077 c7 -8 136 -57 151 -57 24 0 -24 38 -55 43 -18 3 -48 9
-67 13 -19 4 -33 4 -29 1z"/>
<path d="M152 985 c-23 -47 -42 -87 -42 -89 0 -6 54 -23 106 -34 63 -14 73 -1
35 45 -21 26 -36 60 -44 101 l-13 62 -42 -85z"/>
<path d="M1175 1060 c-3 -5 -1 -10 4 -10 6 0 11 5 11 10 0 6 -2 10 -4 10 -3 0
-8 -4 -11 -10z"/>
<path d="M4001 1050 c13 -10 19 -19 14 -20 -6 0 -16 5 -23 12 -6 6 -14 9 -18
6 -8 -9 35 -30 46 -23 14 9 -7 45 -26 45 -12 0 -10 -5 7 -20z"/>
<path d="M1866 1048 c-17 -10 -16 -12 14 -24 18 -8 34 -13 35 -12 1 2 7 12 14
23 11 18 12 18 7 -7 -5 -23 -1 -30 25 -43 17 -9 33 -15 35 -12 2 2 -9 23 -26
45 -32 44 -64 54 -104 30z"/>
<path d="M2465 881 c-4 -99 -4 -184 -1 -190 4 -7 56 14 140 56 l133 66 -23 56
c-13 31 -26 77 -30 104 -4 26 -8 47 -9 47 -2 0 -47 9 -100 20 -53 11 -98 20
-100 20 -1 0 -6 -81 -10 -179z"/>
<path d="M1273 1023 c-28 -5 -29 -23 -3 -97 30 -87 34 -88 41 -6 3 41 9 83 14
93 7 18 -2 20 -52 10z"/>
<path d="M1362 994 c-13 -51 -25 -264 -15 -263 5 0 33 34 63 75 53 73 129 152
179 187 14 9 22 19 19 22 -3 3 -57 8 -121 12 l-115 6 -10 -39z"/>
<path d="M3682 905 c-67 -68 -122 -128 -122 -133 0 -9 20 -19 87 -48 32 -14
33 -14 51 23 31 62 114 274 109 279 -2 2 -59 -52 -125 -121z"/>
<path d="M1728 1011 c-11 -4 -14 -11 -9 -19 6 -10 10 -10 21 3 15 19 11 25
-12 16z"/>
<path d="M1805 970 c14 -28 33 -83 42 -123 9 -40 30 -106 48 -147 18 -41 35
-83 38 -92 6 -16 22 -18 141 -18 74 0 137 4 140 8 6 11 -205 362 -215 357 -3
-3 -20 0 -38 5 l-31 9 0 -46 c0 -26 -2 -44 -5 -42 -5 6 -13 45 -14 72 -1 17
-47 43 -109 62 l-23 7 26 -52z"/>
<path d="M3869 863 c-41 -85 -75 -159 -77 -163 -2 -5 18 -18 44 -29 38 -17 50
-19 63 -9 41 32 198 168 214 186 18 20 17 21 -60 87 -43 37 -85 71 -94 76 -13
7 -29 -18 -90 -148z"/>
<path d="M2710 987 c0 -27 36 -137 49 -150 5 -5 30 3 58 19 66 38 165 105 161
109 -4 4 -233 45 -253 45 -9 0 -15 -9 -15 -23z"/>
<path d="M1113 975 c-86 -43 -86 -42 14 -150 48 -52 90 -95 93 -95 3 0 16 9
29 19 l23 18 -31 96 c-17 54 -31 104 -31 112 0 8 -4 15 -9 15 -5 0 -15 2 -23
5 -7 3 -37 -6 -65 -20z"/>
<path d="M2066 987 c3 -10 9 -15 12 -12 3 3 0 11 -7 18 -10 9 -11 8 -5 -6z"/>
<path d="M2 961 c2 -19 9 -36 15 -39 18 -5 16 30 -2 54 -14 18 -15 17 -13 -15z"/>
<path d="M5112 965 c0 -16 2 -22 5 -12 2 9 2 23 0 30 -3 6 -5 -1 -5 -18z"/>
<path d="M400 920 c-46 -32 -86 -63 -88 -68 -3 -11 102 -37 116 -28 6 3 18 27
27 54 20 56 34 102 32 102 -1 -1 -40 -27 -87 -60z"/>
<path d="M4129 962 c11 -20 41 -48 41 -39 0 18 -25 57 -37 57 -10 0 -11 -5 -4
-18z"/>
<path d="M1573 926 c-32 -24 -77 -66 -99 -93 -48 -58 -104 -138 -104 -150 0
-5 16 -24 35 -43 l35 -34 175 0 c201 -1 186 -10 160 103 -21 89 -110 261 -135
261 -4 0 -34 -20 -67 -44z"/>
<path d="M2160 968 c0 -3 7 -45 15 -94 12 -65 27 -110 56 -164 58 -108 58
-108 119 -80 27 13 50 26 50 30 0 3 -15 24 -34 46 -18 21 -72 90 -120 153 -47
62 -86 111 -86 109z"/>
<path d="M881 945 c0 -18 28 -61 29 -44 0 8 -7 24 -15 35 -8 10 -14 15 -14 9z"/>
<path d="M4226 935 c4 -8 8 -15 10 -15 2 0 4 7 4 15 0 8 -4 15 -10 15 -5 0 -7
-7 -4 -15z"/>
<path d="M1770 911 c0 -6 4 -13 10 -16 6 -3 7 1 4 9 -7 18 -14 21 -14 7z"/>
<path d="M2918 846 c-64 -39 -120 -74 -124 -79 -4 -4 2 -17 13 -30 11 -12 23
-29 27 -37 4 -8 -7 2 -24 22 l-31 37 -130 -64 c-71 -36 -129 -69 -129 -75 0
-5 28 -46 63 -91 l62 -82 79 -23 c55 -17 84 -21 96 -14 30 16 95 96 128 158
64 119 121 329 95 345 -5 3 -61 -27 -125 -67z"/>
<path d="M3100 909 c0 -5 5 -7 10 -4 6 3 10 8 10 11 0 2 -4 4 -10 4 -5 0 -10
-5 -10 -11z"/>
<path d="M4277 913 c-6 -5 8 -25 54 -81 6 -7 13 -11 16 -8 6 5 -43 82 -57 91
-4 3 -10 2 -13 -2z"/>
<path d="M3120 891 c-7 -14 3 -37 47 -107 60 -95 100 -177 127 -261 l17 -52
28 32 c15 18 60 76 99 129 64 88 70 99 56 113 -27 27 -96 62 -204 105 -150 60
-158 62 -170 41z"/>
<path d="M4566 869 c-4 -23 -5 -44 -2 -46 2 -2 7 14 11 37 4 23 5 43 2 46 -2
3 -7 -14 -11 -37z"/>
<path d="M967 856 c-13 -13 -17 -34 -17 -85 l0 -68 53 -7 c28 -3 71 -6 95 -6
53 0 51 5 -45 109 -65 70 -70 73 -86 57z"/>
<path d="M76 851 c-4 -7 -5 -15 -2 -18 9 -9 19 4 14 18 -4 11 -6 11 -12 0z"/>
<path d="M4075 773 c-105 -100 -179 -158 -252 -199 -29 -16 -53 -32 -53 -36 0
-4 9 -12 20 -18 17 -9 26 -7 52 15 24 20 33 23 44 14 12 -10 21 -6 44 16 28
27 29 30 13 47 -15 17 -15 18 9 18 36 0 243 210 221 223 -5 3 -48 -34 -98 -80z"/>
<path d="M5067 853 c-4 -3 -7 -11 -7 -17 0 -6 5 -5 12 2 6 6 9 14 7 17 -3 3
-9 2 -12 -2z"/>
<path d="M122 838 c5 -15 28 -18 29 -3 0 6 -7 12 -17 13 -10 3 -15 -1 -12 -10z"/>
<path d="M3440 846 c0 -3 9 -10 20 -16 11 -6 20 -8 20 -6 0 3 -9 10 -20 16
-11 6 -20 8 -20 6z"/>
<path d="M3543 833 c-7 -3 -13 -12 -13 -21 0 -15 2 -15 17 1 18 18 16 27 -4
20z"/>
<path d="M3086 778 c-10 -74 3 -305 20 -360 17 -52 49 -98 68 -98 16 0 106
113 106 133 0 9 -14 55 -31 104 -32 90 -67 155 -124 230 l-32 43 -7 -52z"/>
<path d="M245 795 l-27 -23 82 -27 c80 -27 84 -27 97 -9 23 31 15 40 -55 61
l-69 20 -28 -22z"/>
<path d="M4101 700 c-46 -50 -82 -93 -80 -94 9 -9 308 -156 315 -156 5 0 21
10 37 23 l28 22 -101 145 c-55 80 -104 146 -108 148 -5 1 -45 -38 -91 -88z"/>
<path d="M852 755 l-23 -30 20 -9 c27 -12 33 -5 29 35 l-3 34 -23 -30z"/>
<path d="M4350 775 c0 -7 52 -85 56 -85 2 0 -6 20 -18 45 -19 38 -38 58 -38
40z"/>
<path d="M4420 772 c0 -22 85 -202 96 -202 13 0 26 39 39 115 3 22 8 48 11 57
4 13 -4 18 -43 23 -26 3 -60 8 -75 10 -16 3 -28 1 -28 -3z"/>
<path d="M434 739 c-8 -17 -14 -32 -12 -34 2 -1 25 -12 53 -24 47 -21 54 -21
138 -10 48 7 82 16 75 20 -7 4 -58 21 -113 39 -55 17 -106 33 -112 35 -7 3
-20 -9 -29 -26z"/>
<path d="M4631 699 c-7 -34 -10 -63 -8 -66 3 -2 27 9 53 26 44 28 46 31 23 31
-15 0 -32 6 -38 14 -9 11 0 15 55 21 36 4 84 13 107 20 40 13 38 13 -69 14
l-111 1 -12 -61z"/>
<path d="M26 729 c-24 -19 -26 -27 -26 -91 0 -81 7 -81 60 2 30 47 31 50 15
79 -8 17 -17 31 -19 31 -2 0 -15 -9 -30 -21z"/>
<path d="M4818 650 c-98 -50 -172 -95 -171 -102 5 -38 101 -263 116 -272 15
-9 23 -6 43 19 86 104 237 445 196 445 -5 0 -88 -40 -184 -90z"/>
<path d="M166 698 c-17 -29 -17 -31 15 -119 19 -49 37 -89 41 -89 19 0 92 78
114 122 13 26 24 49 24 52 0 5 -64 31 -126 49 l-51 15 -17 -30z"/>
<path d="M1255 715 c-19 -15 -19 -16 3 -37 20 -21 23 -21 38 -6 10 10 14 23 9
37 -7 25 -22 26 -50 6z"/>
<path d="M3016 655 c-35 -93 -91 -187 -133 -228 -18 -18 -33 -35 -33 -38 0 -6
18 -11 111 -35 12 -3 23 12 42 53 35 81 49 155 45 245 l-3 76 -29 -73z"/>
<path d="M3553 717 c4 -10 14 -42 23 -72 8 -30 17 -55 18 -55 6 0 59 80 55 84
-2 2 -26 16 -53 32 -40 22 -48 25 -43 11z"/>
<path d="M5017 638 c-38 -110 -86 -208 -147 -302 -28 -43 -50 -79 -48 -81 10
-8 113 -33 120 -29 30 19 178 371 178 423 0 30 -5 40 -29 54 -16 9 -33 17 -38
17 -4 0 -21 -37 -36 -82z"/>
<path d="M4340 705 c0 -12 49 -101 69 -125 l20 -25 -9 34 c-12 45 -80 143 -80
116z"/>
<path d="M1826 655 c7 -41 18 -63 27 -48 2 4 -4 26 -14 48 l-18 40 5 -40z"/>
<path d="M3746 613 c-14 -29 -26 -55 -26 -57 0 -3 26 11 57 30 31 19 60 34 65
34 21 0 4 19 -31 32 l-38 15 -27 -54z"/>
<path d="M960 650 c0 -5 14 -10 31 -10 17 0 28 4 24 10 -3 6 -17 10 -31 10
-13 0 -24 -4 -24 -10z"/>
<path d="M375 620 c-21 -41 -20 -42 31 -18 40 20 43 24 28 35 -27 20 -42 16
-59 -17z"/>
<path d="M1324 637 c-8 -22 -1 -30 21 -25 14 3 14 5 1 23 -14 19 -15 19 -22 2z"/>
<path d="M3635 606 c-26 -33 -35 -51 -30 -66 3 -11 10 -20 14 -20 10 0 64 121
57 127 -2 2 -20 -16 -41 -41z"/>
<path d="M1120 636 c0 -9 30 -14 35 -6 4 6 -3 10 -14 10 -12 0 -21 -2 -21 -4z"/>
<path d="M635 616 l-60 -13 78 -37 c44 -21 80 -36 81 -34 6 10 26 76 26 86 0
15 -45 14 -125 -2z"/>
<path d="M786 584 c-22 -65 -21 -71 17 -77 17 -4 42 -9 55 -13 12 -3 22 -2 22
4 0 8 -62 117 -74 129 -2 2 -11 -17 -20 -43z"/>
<path d="M53 549 c-52 -68 -53 -71 -53 -139 0 -39 3 -70 8 -70 4 0 27 18 51
39 l45 38 -27 33 c-27 32 -32 53 -12 50 32 -3 85 -22 85 -30 0 -6 4 -10 10
-10 9 0 -35 137 -49 151 -3 4 -30 -24 -58 -62z"/>
<path d="M862 595 c6 -14 15 -25 20 -25 11 0 10 7 -2 31 -16 28 -32 23 -18 -6z"/>
<path d="M3422 540 c-51 -45 -92 -88 -92 -95 0 -21 41 -85 54 -85 7 0 48 24
92 53 67 44 79 56 76 77 -1 14 -9 30 -17 36 -8 6 -12 19 -9 30 3 11 1 30 -4
43 -8 23 -11 21 -100 -59z"/>
<path d="M960 554 c0 -37 3 -43 30 -54 28 -12 33 -10 76 25 25 21 42 41 37 45
-4 4 -38 12 -75 17 l-68 9 0 -42z"/>
<path d="M2442 588 c-5 -7 -13 -44 -17 -83 -5 -60 -3 -74 14 -99 l19 -29 17
34 c10 19 29 49 42 67 l25 34 -30 41 c-32 45 -53 55 -70 35z"/>
<path d="M410 540 c-47 -28 -102 -65 -123 -83 l-39 -32 63 -157 62 -157 40 22
c50 28 177 161 226 236 38 60 67 119 60 125 -17 14 -179 96 -190 96 -8 0 -52
-23 -99 -50z"/>
<path d="M3926 519 c-31 -33 -56 -65 -56 -70 0 -6 22 -33 48 -61 48 -50 48
-50 87 -39 22 6 57 8 78 4 30 -4 57 1 123 28 46 19 83 38 81 42 -3 11 -277
157 -293 157 -7 0 -37 -27 -68 -61z"/>
<path d="M1175 551 c-16 -11 -48 -35 -69 -54 l-40 -34 44 -32 c44 -32 59 -29
60 10 0 9 18 37 40 62 22 25 40 50 40 56 0 17 -42 13 -75 -8z"/>
<path d="M1497 562 c-15 -6 -3 -22 70 -94 l89 -86 69 13 c39 7 71 12 73 10 12
-11 -18 -37 -56 -48 l-45 -13 54 -52 54 -52 9 47 c8 41 -5 258 -16 267 -8 7
-285 14 -301 8z"/>
<path d="M2077 563 c-117 -3 -128 -5 -122 -21 3 -9 11 -36 18 -59 6 -24 14
-43 17 -43 3 0 42 17 85 39 44 21 101 46 127 56 45 16 57 38 20 33 -9 -1 -75
-4 -145 -5z"/>
<path d="M2358 556 l-28 -12 27 -37 c14 -20 27 -36 28 -35 6 8 12 98 6 97 -3
0 -18 -6 -33 -13z"/>
<path d="M1340 552 c0 -14 58 -132 65 -132 5 0 -1 15 -38 90 -15 30 -27 49
-27 42z"/>
<path d="M1850 536 c0 -13 3 -44 6 -69 6 -44 8 -45 30 -35 29 13 28 12 7 77
-17 53 -43 69 -43 27z"/>
<path d="M1384 521 c27 -52 145 -136 164 -116 11 10 -136 145 -158 145 -19 0
-20 -2 -6 -29z"/>
<path d="M4602 520 c-17 -45 -34 -134 -31 -160 3 -19 16 -29 67 -49 34 -13 64
-22 67 -19 5 5 -65 202 -84 235 -9 16 -11 16 -19 -7z"/>
<path d="M3686 481 c-28 -54 -28 -111 -1 -147 10 -14 17 -8 53 49 23 37 42 70
42 75 0 4 -15 23 -34 41 l-34 33 -26 -51z"/>
<path d="M2200 481 c-41 -20 -92 -43 -112 -51 l-37 -15 126 -114 c92 -83 128
-110 134 -100 4 8 12 50 18 93 6 44 14 82 16 85 11 10 26 -17 33 -58 7 -41 8
-42 24 -24 16 18 14 23 -48 113 -37 52 -69 98 -73 101 -3 4 -40 -10 -81 -30z"/>
<path d="M1270 474 c-32 -23 -58 -68 -59 -104 -1 -10 16 -19 49 -27 28 -7 64
-21 79 -33 37 -26 49 -25 62 4 8 17 8 30 -1 47 -21 41 -85 139 -90 138 -3 0
-21 -12 -40 -25z"/>
<path d="M5110 495 c0 -2 -9 -28 -20 -57 l-21 -53 25 30 c22 26 36 85 21 85
-3 0 -5 -2 -5 -5z"/>
<path d="M754 463 c-21 -61 -91 -192 -134 -248 l-50 -66 38 23 c272 164 262
155 262 231 0 34 -4 40 -32 51 -66 27 -78 28 -84 9z"/>
<path d="M2555 440 c-10 -19 -24 -45 -32 -57 -14 -21 -13 -22 72 -49 47 -15
88 -25 90 -22 5 4 -48 84 -88 133 l-24 29 -18 -34z"/>
<path d="M950 408 l0 -32 23 22 c19 19 20 24 7 32 -25 16 -30 12 -30 -22z"/>
<path d="M3036 399 c-19 -47 -12 -59 33 -59 18 0 22 4 16 18 -4 9 -13 32 -20
50 l-12 34 -17 -43z"/>
<path d="M4433 418 c-29 -14 -29 -23 -1 -42 32 -23 38 -20 38 19 0 38 -3 39
-37 23z"/>
<path d="M1993 393 c8 -29 17 -71 42 -190 13 -61 32 -132 44 -157 l20 -46 65
0 c36 0 66 2 66 4 0 2 15 37 34 78 l34 75 -116 104 c-113 101 -173 149 -187
149 -3 0 -4 -8 -2 -17z"/>
<path d="M3266 363 l-37 -48 28 -6 c28 -5 83 17 83 34 0 9 -29 67 -34 67 -2 0
-20 -21 -40 -47z"/>
<path d="M3808 393 c-9 -10 -32 -40 -52 -67 l-37 -49 25 -26 26 -27 75 37 c42
20 79 40 82 43 7 6 -85 106 -98 106 -3 0 -13 -8 -21 -17z"/>
<path d="M1440 391 c0 -10 36 -89 46 -100 2 -2 25 13 50 34 l47 39 -54 11
c-30 7 -62 15 -71 20 -11 4 -18 3 -18 -4z"/>
<path d="M1893 387 l-33 -10 0 -82 c0 -86 0 -87 63 -135 17 -13 18 -11 12 23
-8 40 7 50 34 25 11 -11 12 -9 8 7 -4 11 -13 51 -22 89 -20 91 -23 94 -62 83z"/>
<path d="M2700 379 c15 -27 34 -33 62 -18 23 12 23 12 -12 25 -53 19 -63 18
-50 -7z"/>
<path d="M3500 369 c-25 -17 -58 -43 -73 -58 l-28 -26 23 -6 c73 -21 97 -8
118 60 4 14 11 34 15 44 10 24 -3 21 -55 -14z"/>
<path d="M5082 355 c-18 -27 -30 -56 -27 -64 3 -8 -6 -31 -20 -52 -14 -21 -25
-41 -25 -43 0 -7 101 -39 106 -33 3 2 3 58 2 123 l-3 119 -33 -50z"/>
<path d="M95 312 l-90 -68 -3 -107 c-2 -93 -1 -107 13 -107 15 0 287 60 292
64 5 4 -109 286 -116 286 -4 0 -47 -31 -96 -68z"/>
<path d="M4275 353 c-33 -15 -101 -38 -151 -52 l-92 -26 57 -62 56 -62 65 12
c82 17 140 47 202 104 l48 46 -49 33 c-28 19 -56 34 -63 34 -7 -1 -40 -13 -73
-27z"/>
<path d="M1014 352 c-72 -40 -77 -47 -72 -97 3 -25 8 -48 10 -51 3 -2 37 15
76 38 64 39 70 45 65 70 -3 16 0 35 7 43 11 13 8 15 -21 15 -19 -1 -48 -9 -65
-18z"/>
<path d="M2778 334 c-16 -8 -28 -19 -28 -23 0 -12 90 -131 99 -131 16 0 111
112 111 131 0 7 -119 39 -142 39 -7 -1 -25 -8 -40 -16z"/>
<path d="M2494 325 c-9 -22 42 -91 76 -105 30 -12 33 -12 65 21 l34 34 -85 31
c-65 24 -87 28 -90 19z"/>
<path d="M4015 320 c-25 -11 1 -11 35 0 20 6 21 8 5 8 -11 0 -29 -3 -40 -8z"/>
<path d="M1548 292 c-24 -17 -37 -33 -34 -44 2 -9 36 -69 76 -132 l72 -116 43
0 43 0 20 68 c38 124 41 109 -43 186 -42 37 -79 66 -82 62 -3 -3 24 -36 61
-74 61 -63 79 -92 58 -92 -10 0 -142 132 -154 155 -12 20 -16 19 -60 -13z"/>
<path d="M2987 280 c-10 -16 -40 -52 -67 -80 -27 -27 -43 -50 -37 -50 7 0 67
16 135 37 121 36 151 55 139 87 -4 10 -108 36 -143 36 -6 0 -18 -13 -27 -30z"/>
<path d="M1189 284 c-8 -10 -63 -49 -123 -87 l-108 -71 5 -53 c3 -29 8 -57 12
-63 3 -5 34 -10 68 -10 l62 1 112 118 112 118 -22 20 c-48 45 -95 55 -118 27z"/>
<path d="M1415 269 c-9 -28 9 -46 29 -30 12 10 13 18 5 32 -13 25 -26 24 -34
-2z"/>
<path d="M3216 283 c-11 -11 -6 -23 8 -23 8 0 17 4 20 9 7 10 -19 23 -28 14z"/>
<path d="M4431 246 c-49 -50 -120 -92 -198 -116 -30 -9 -54 -20 -54 -23 1 -4
13 -29 29 -57 l27 -50 97 0 c83 0 99 3 107 18 18 34 42 170 39 221 l-3 52 -44
-45z"/>
<path d="M2407 218 c-40 -62 -117 -203 -117 -212 0 -3 44 -6 98 -6 113 1 131
10 139 67 4 32 -2 54 -36 121 -23 45 -43 82 -46 82 -3 0 -20 -24 -38 -52z"/>
<path d="M2667 232 l-38 -39 41 -12 c22 -7 64 -15 92 -18 l52 -6 -49 56 c-27
32 -52 57 -55 57 -3 0 -23 -17 -43 -38z"/>
<path d="M762 199 c-46 -28 -81 -53 -79 -56 3 -2 36 -11 74 -19 66 -14 68 -14
86 7 17 21 25 119 10 119 -5 0 -45 -23 -91 -51z"/>
<path d="M3286 219 l-49 -30 24 -24 c19 -18 40 -25 95 -30 l72 -7 29 44 c43
63 43 63 20 63 -12 1 -49 4 -82 8 -56 7 -64 5 -109 -24z"/>
<path d="M3526 188 c-26 -35 -43 -64 -37 -66 6 -2 35 1 64 8 52 10 54 12 69
59 15 48 15 49 -6 55 -37 10 -41 7 -90 -56z"/>
<path d="M3918 235 c-20 -8 -53 -21 -73 -30 l-35 -17 82 -64 c71 -54 85 -61
98 -50 8 8 35 24 58 36 50 24 51 18 -27 103 -38 40 -48 42 -103 22z"/>
<path d="M4523 164 c0 -49 -3 -104 -7 -121 l-7 -32 33 11 c66 22 83 57 52 108
l-15 25 7 -25 c4 -14 9 -32 12 -40 3 -8 2 -12 -2 -8 -5 4 -23 44 -41 89 l-33
83 1 -90z"/>
<path d="M4631 216 c29 -50 37 -52 67 -23 l26 26 -25 9 c-13 5 -39 13 -57 17
l-32 7 21 -36z"/>
<path d="M1462 217 c-9 -10 0 -24 39 -63 l51 -49 -37 60 c-21 33 -39 61 -40
63 -1 1 -7 -4 -13 -11z"/>
<path d="M3680 200 c0 -5 5 -10 10 -10 6 0 10 5 10 10 0 6 -4 10 -10 10 -5 0
-10 -4 -10 -10z"/>
<path d="M4777 204 c-5 -5 27 -102 37 -111 6 -7 80 39 93 57 16 23 21 20 -66
44 -64 19 -56 17 -64 10z"/>
<path d="M3174 156 c-24 -18 -17 -26 18 -19 17 3 25 10 21 19 -7 18 -14 18
-39 0z"/>
<path d="M4726 149 c-21 -30 -20 -41 5 -73 17 -21 24 -24 40 -16 18 10 18 12
2 53 -22 58 -28 62 -47 36z"/>
<path d="M1348 129 c-21 -17 -38 -35 -38 -41 0 -5 14 -27 32 -49 l31 -39 90 0
90 0 -82 80 c-44 44 -82 80 -84 80 -1 -1 -19 -14 -39 -31z"/>
<path d="M3686 147 c-28 -21 -16 -41 12 -22 22 16 30 35 14 35 -5 0 -16 -6
-26 -13z"/>
<path d="M2584 100 c0 -27 3 -50 8 -50 4 0 32 12 63 27 l55 27 -63 23 c-34 12
-62 23 -63 23 0 0 0 -22 0 -50z"/>
<path d="M4972 115 c-11 -25 -11 -25 36 -24 26 1 58 4 71 8 21 6 17 9 -31 24
-68 21 -63 22 -76 -8z"/>
<path d="M1836 112 c-2 -9 -7 -30 -11 -47 -3 -16 -8 -39 -12 -50 l-5 -20 15
20 c14 19 16 19 22 3 6 -15 20 -18 82 -18 42 0 73 4 71 9 -1 6 -38 35 -80 65
-63 45 -78 52 -82 38z"/>
<path d="M3830 70 c41 -61 58 -71 79 -46 9 10 -1 23 -48 60 -33 25 -62 46 -66
46 -3 0 13 -27 35 -60z"/>
<path d="M3713 100 c-37 -22 -37 -22 -21 -67 12 -33 13 -33 76 -33 l63 0 -16
27 c-9 16 -28 43 -43 61 l-27 32 -32 -20z"/>
<path d="M3015 100 c-3 -5 -2 -10 4 -10 5 0 16 -3 24 -6 8 -3 17 2 20 10 5 12
0 16 -18 16 -13 0 -27 -4 -30 -10z"/>
<path d="M3300 103 c0 -5 7 -16 15 -27 14 -18 15 -18 39 2 l26 20 -31 6 c-41
8 -49 8 -49 -1z"/>
<path d="M3116 78 c-21 -30 -20 -40 9 -61 19 -14 40 -17 88 -15 54 3 62 6 65
24 2 11 -7 32 -18 47 -19 23 -29 27 -75 27 -44 0 -57 -4 -69 -22z"/>
<path d="M3515 74 c-27 -7 -60 -14 -73 -14 -23 0 -82 -37 -82 -52 0 -4 43 -8
96 -8 l95 0 15 35 c25 60 25 60 -51 39z"/>
<path d="M465 40 l-46 -35 127 -3 127 -3 28 33 c16 18 28 37 29 41 0 5 -49 7
-110 5 -108 -3 -111 -4 -155 -38z"/>
<path d="M2754 64 c-18 -14 -17 -15 16 -10 30 5 27 2 -25 -23 l-60 -29 185 -1
185 0 -37 19 c-30 16 -45 18 -82 11 -36 -7 -46 -6 -46 5 0 31 -105 53 -136 28z"/>
<path d="M4057 59 l-38 -20 25 -20 c20 -15 37 -19 77 -17 l51 3 -24 35 c-29
42 -42 45 -91 19z"/>
<path d="M855 29 l-30 -29 33 0 c29 0 32 3 32 30 0 17 -1 30 -2 29 -2 0 -16
-13 -33 -30z"/>
<path d="M3636 38 c-9 -35 -8 -38 15 -38 16 0 19 4 14 23 -11 35 -22 41 -29
15z"/>
<path d="M4654 27 c-8 -22 -1 -30 21 -25 14 3 14 5 1 23 -14 19 -15 19 -22 2z"/>
<path d="M1230 15 c-11 -13 -8 -15 15 -15 23 0 26 2 15 15 -7 8 -14 15 -15 15
-1 0 -8 -7 -15 -15z"/>
<path d="M4920 15 c-11 -13 0 -15 94 -15 88 0 106 3 106 15 0 12 -17 15 -94
15 -71 0 -97 -4 -106 -15z"/>
<path d="M270 10 c-22 -7 -21 -8 12 -9 20 -1 40 4 43 9 7 12 -19 12 -55 0z"/>
<path d="M785 10 c-3 -5 -1 -10 4 -10 6 0 11 5 11 10 0 6 -2 10 -4 10 -3 0 -8
-4 -11 -10z"/>
</g>
</svg>